<svg width="523" height="430" viewBox="0 0 523 430" fill="none" xmlns="http://www.w3.org/2000/svg">
<g clip-path="url(#clip0)">
<path opacity="0.1" d="M6.55031 160.064H54.5841V225.534H10.0668C9.9485 226.206 9.83491 226.883 9.71186 227.56H54.5841V280.36C54.5036 280.336 54.4327 280.308 54.3569 280.279C53.0885 279.777 51.8296 279.247 50.5706 278.679L49.7661 278.315C48.504 277.719 47.2419 277.088 45.9798 276.422C45.5396 276.19 45.0995 275.949 44.664 275.702C37.6574 271.778 31.2923 266.804 25.7894 260.955C25.6285 260.799 25.477 260.633 25.3161 260.482C24.5494 259.649 23.7969 258.806 23.068 257.945L22.2634 256.998C21.402 255.943 20.569 254.859 19.7597 253.761C19.6414 253.6 19.5278 253.439 19.4048 253.288C16.1133 248.724 13.3803 243.782 11.2642 238.568C11.198 238.412 11.1412 238.242 11.0797 238.095C10.4297 236.423 9.85384 234.735 9.35216 233.031C9.13445 232.316 8.9262 231.611 8.74635 230.868C8.68009 230.65 8.6233 230.437 8.57124 230.224C5.88297 219.732 5.56587 208.832 5.56587 198.008C5.56587 196.744 5.56587 195.476 5.56587 194.222C5.56587 189.844 5.61793 185.437 5.69366 181.036C5.69366 179.895 5.74099 178.759 5.76465 177.614C5.83091 174.708 5.92557 171.802 6.04862 168.896C6.07702 168.087 6.11488 167.282 6.15748 166.477C6.15748 166.014 6.18114 165.55 6.22847 165.086C6.34206 163.401 6.43672 161.73 6.55031 160.064Z" fill="#8D1919"/>
<path opacity="0.1" d="M54.5841 87.1695H28.2362C32.5192 80.4658 37.1989 74.024 42.2502 67.8784C46.1643 63.0698 50.2961 58.3843 54.5841 53.8691V87.1695Z" fill="#8D1919"/>
<path opacity="0.1" d="M54.5841 89.1953V158.039H6.70171C6.70171 157.841 6.73484 157.637 6.74904 157.438C6.79164 156.894 6.83423 156.35 6.88156 155.81C6.93362 155.176 6.99042 154.537 7.05194 153.917C7.11347 153.297 7.17973 152.54 7.25073 151.854C7.32172 151.167 7.38798 150.472 7.46844 149.785C7.5489 149.099 7.61989 148.413 7.70508 147.731C7.79027 147.05 7.866 146.359 7.95592 145.677C8.02692 145.109 8.10264 144.546 8.17836 143.978C8.28722 143.178 8.40081 142.374 8.52386 141.579C8.52386 141.46 8.55699 141.337 8.57593 141.224C9.43976 135.403 10.6168 129.633 12.1019 123.939C13.6565 117.966 15.6416 112.114 18.0416 106.428C20.5925 100.479 23.5792 94.7274 26.9773 89.219L54.5841 89.1953Z" fill="#8D1919"/>
<path opacity="0.1" d="M66.0518 160.061V225.535H168.646V160.061H66.0518ZM66.0518 227.556V283.782C66.6387 283.905 67.2208 284.024 67.7982 284.123C68.5839 284.275 69.3648 284.412 70.1646 284.53C70.3161 284.554 70.4723 284.578 70.6379 284.592C70.9503 284.644 71.2721 284.686 71.5845 284.729C72.3749 284.838 73.1605 284.928 73.9509 284.999C74.3248 285.037 74.7034 285.07 75.0821 285.098L75.9955 285.169C76.4925 285.207 76.9847 285.235 77.4722 285.25C77.7751 285.25 78.078 285.278 78.3903 285.287C78.627 285.287 78.8636 285.287 79.1097 285.287C79.3558 285.287 79.7061 285.287 80.0043 285.287C80.4113 285.287 80.8183 285.287 81.2206 285.287H81.7649C82.1719 285.287 82.5789 285.287 82.9812 285.25H83.0096C83.2889 285.25 83.5728 285.25 83.8568 285.212C83.9356 285.216 84.0146 285.216 84.0934 285.212C84.3301 285.212 84.5667 285.212 84.7939 285.179H84.9596L86.5451 285.056C87.0657 285.008 87.591 284.947 88.1211 284.89L89.2002 284.762C93.5903 284.147 97.9316 283.223 102.192 281.998C111.762 279.329 121.123 275.595 130.688 272.859C143.055 269.333 156.719 267.601 168.67 271.912V227.556H66.0518ZM168.646 87.1699V0.00481036C157.414 -0.116883 146.212 1.19687 135.312 3.91415C109.334 10.4408 86.0245 24.5968 66.0518 42.6763V87.1652H71.2011V89.1861H66.0518V158.04H168.646V89.1908H92.3428V87.1699H168.646ZM300.423 57.7268C293.996 57.4996 287.606 55.4645 281.828 52.3218C270.776 46.3111 261.95 37.03 252.086 29.1971C231.593 12.8829 206.178 3.03857 180.104 0.596418V87.1699H326.563L326.927 86.7865L300.423 57.7268ZM313.765 55.3604L327.911 70.8841V51.2901C323.174 51.877 319.023 53.2732 313.784 55.3414L313.765 55.3604ZM327.911 297.744V227.556H297.768C297.687 227.258 297.607 226.955 297.512 226.652C297.602 226.955 297.678 227.258 297.763 227.556H180.123V278.316C181.24 279.144 182.343 280.015 183.436 280.9C184.615 281.847 185.779 282.845 186.948 283.825L188.126 284.8C188.69 285.273 189.258 285.747 189.83 286.191C190.966 287.113 192.113 288.021 193.271 288.918C193.844 289.391 194.431 289.817 195.013 290.262C204.255 297.328 214.004 303.704 224.181 309.34C226.463 310.602 228.764 311.834 231.087 313.036C232.634 313.827 234.191 314.612 235.753 315.374C238.101 316.52 240.467 317.624 242.853 318.687C264.844 328.559 288.099 335.333 311.952 338.816C317.25 339.599 322.568 340.214 327.907 340.662V297.74H328.38L327.911 297.744ZM180.123 89.1908V158.04H327.93V89.1908H180.123ZM180.123 160.061V225.535H327.93V160.061H180.123ZM339.403 51.2049V73.0612L357.459 53.2495C351.476 52.284 345.458 51.5946 339.403 51.1812V51.2049ZM339.403 160.084V225.535H483.163V160.061L339.403 160.084ZM482.638 302.941L483.144 227.556H339.403V341.414C348.663 341.803 357.937 341.693 367.185 341.083H367.346C371.763 340.805 376.16 340.402 380.536 339.872H380.636C403.983 337.154 426.813 331.063 448.41 321.787L482.638 302.941ZM510.884 170.842C510.344 169.569 509.781 168.305 509.208 167.056C508.139 164.689 507.008 162.389 505.843 160.089H494.626V225.535H522.986C522.972 207.001 518.281 188.07 510.898 170.818L510.884 170.842ZM494.626 227.58V292.42C502.616 284.762 509.365 276.002 514.225 265.987C520.07 253.927 522.744 240.87 522.962 227.57L494.626 227.58ZM494.626 141.006V158.044H504.793C501.717 152.179 498.328 146.484 494.641 140.983L494.626 141.006ZM397.13 64.0499C396.382 63.7659 395.634 63.4772 394.881 63.198C386.945 60.267 378.835 57.8297 370.597 55.8999L342.967 86.2233L342.437 86.7865L342.792 87.1746H441.131C427.435 77.747 412.67 69.9766 397.144 64.0262L397.13 64.0499ZM444.013 89.2145H341.419L339.403 91.0603V158.04H357.075H357.104H483.182V125.596C471.777 111.802 458.614 99.5632 444.027 89.1908L444.013 89.2145Z" fill="#8D1919"/>
<path opacity="0.1" d="M54.5841 123.921V158.04H6.70171C6.70171 157.841 6.73484 157.638 6.74904 157.439C6.79164 156.895 6.83423 156.35 6.88156 155.811C6.93362 155.177 6.99042 154.538 7.05194 153.918C7.11347 153.298 7.17973 152.541 7.25073 151.854C7.32172 151.168 7.38798 150.472 7.46844 149.786C7.5489 149.1 7.61989 148.413 7.70508 147.732C7.79027 147.05 7.866 146.359 7.95592 145.678C8.02692 145.11 8.10264 144.547 8.17836 143.979C8.28722 143.179 8.40081 142.374 8.52386 141.579C8.52386 141.461 8.55699 141.338 8.57593 141.224C9.43976 135.404 10.6168 129.634 12.1019 123.94L54.5841 123.921Z" fill="#8D1919"/>
<path opacity="0.1" d="M6.55031 160.064H54.5841V225.534H10.0668C9.9485 226.206 9.83491 226.883 9.71186 227.56H54.5841V280.36C54.5036 280.336 54.4327 280.308 54.3569 280.279C53.0885 279.777 51.8296 279.247 50.5706 278.679L49.7661 278.315C48.504 277.719 47.2419 277.088 45.9798 276.422C45.5396 276.19 45.0995 275.949 44.664 275.702C37.6574 271.778 31.2923 266.804 25.7894 260.955C25.6285 260.799 25.477 260.633 25.3161 260.482C24.5494 259.649 23.7969 258.806 23.068 257.945L22.2634 256.998C21.402 255.943 20.569 254.859 19.7597 253.761C19.6414 253.6 19.5278 253.439 19.4048 253.288C16.1133 248.724 13.3803 243.782 11.2642 238.568C11.198 238.412 11.1412 238.242 11.0797 238.095C10.4297 236.423 9.85384 234.735 9.35216 233.031C9.13445 232.316 8.9262 231.611 8.74635 230.868C8.68009 230.65 8.6233 230.437 8.57124 230.224C5.88297 219.732 5.56587 208.832 5.56587 198.008C5.56587 196.744 5.56587 195.476 5.56587 194.222C5.56587 189.844 5.61793 185.437 5.69366 181.036C5.69366 179.895 5.74099 178.759 5.76465 177.614C5.83091 174.708 5.92557 171.802 6.04862 168.896C6.07702 168.087 6.11488 167.282 6.15748 166.477C6.15748 166.014 6.18114 165.55 6.22847 165.086C6.34206 163.401 6.43672 161.73 6.55031 160.064Z" fill="#8D1919"/>
<path opacity="0.1" d="M102.168 99.0488V158.039H66.0518V99.0488H71.2011V79.0762H92.3381V99.0488H102.168Z" fill="#8D1919"/>
<path opacity="0.1" d="M102.168 160.061H66.0565V225.53H102.168V160.061Z" fill="#8D1919"/>
<path opacity="0.1" d="M66.0518 227.561H102.168V281.988C97.9079 283.213 93.5666 284.135 89.1765 284.748L88.0974 284.88C87.5674 284.942 87.042 284.994 86.5214 285.046C86.0008 285.098 85.4612 285.136 84.9359 285.169H84.7702C84.5431 285.169 84.297 285.197 84.0745 285.202H83.8331C83.5492 285.202 83.2652 285.23 82.9812 285.24C82.5789 285.264 82.1766 285.268 81.7649 285.273C81.5898 285.273 81.4241 285.273 81.249 285.273C80.842 285.273 80.4397 285.273 80.0326 285.273H79.1381C78.8968 285.273 78.6649 285.273 78.414 285.273L77.5006 285.24C77.0273 285.24 76.5161 285.188 76.0239 285.155L75.1152 285.088L73.9841 284.984C73.1889 284.913 72.3985 284.823 71.6176 284.715L70.671 284.582L70.1978 284.516C69.4074 284.393 68.6265 284.26 67.8313 284.109C67.2492 284.009 66.6718 283.886 66.0849 283.768L66.0518 227.561Z" fill="#8D1919"/>
<path opacity="0.1" d="M327.93 92.082H298.151V158.034H327.93V92.082Z" fill="#8D1919"/>
<path opacity="0.1" d="M327.935 160.061V225.535H180.123V197.294H258.854V213.954H298.151V160.061H327.935Z" fill="#8D1919"/>
<path opacity="0.1" d="M328.404 297.759H327.93V340.71C322.598 340.258 317.282 339.645 311.981 338.869C288.116 335.375 264.851 328.586 242.853 318.697C236.501 315.839 230.279 312.718 224.186 309.336C214.009 303.697 204.258 297.321 195.013 290.257C192.691 288.478 190.398 286.657 188.136 284.796C186.569 283.504 185.012 282.178 183.436 280.891C182.343 280.006 181.24 279.135 180.123 278.302V227.561H297.758C297.678 227.258 297.598 226.955 297.512 226.657C297.602 226.955 297.687 227.258 297.768 227.561H327.93V297.731C328.091 297.735 328.248 297.75 328.404 297.759Z" fill="#8D1919"/>
<path opacity="0.1" d="M405.597 87.1696H386.192V81.1399H394.891V63.1787C395.645 63.4532 396.396 63.7356 397.144 64.0259V81.1399H405.597V87.1696Z" fill="#8D1919"/>
<path opacity="0.1" d="M452.348 158.039H357.085C357.085 158.039 357.085 158.039 357.118 158.063L357.075 158.039H339.403V92.0871H344.41V140.836H367.294V111.965H386.197V89.1953H405.601V111.984H424.504V140.854H452.348V158.039Z" fill="#8D1919"/>
<path opacity="0.1" d="M339.403 160.061V225.535H452.348V160.061H339.403ZM483.007 302.605L483.164 250.78H452.348V227.589H339.403V341.414C348.663 341.803 357.937 341.693 367.185 341.083H367.346C371.763 340.805 376.16 340.401 380.536 339.871H380.636C403.983 337.154 426.813 331.063 448.41 321.787" fill="#8D1919"/>
<path opacity="0.1" d="M496.633 227.561H522.981C522.749 240.855 520.08 253.913 514.239 265.972C509.379 275.992 502.625 284.752 494.645 292.405V250.756H496.633V227.561Z" fill="#8D1919"/>
<path opacity="0.1" d="M522.995 225.535H496.633V170.818H510.898C518.281 188.07 522.972 207.001 522.995 225.535Z" fill="#8D1919"/>
<path opacity="0.1" d="M327.935 110.418H311.981V131.096H327.935V110.418Z" fill="#8D1919"/>
<path opacity="0.1" d="M327.935 153.278H311.981V158.04H327.935V153.278Z" fill="#8D1919"/>
<path opacity="0.1" d="M327.935 160.061H311.981V173.951H327.935V160.061Z" fill="#8D1919"/>
<path opacity="0.1" d="M327.935 196.139H311.981V216.817H327.935V196.139Z" fill="#8D1919"/>
<path opacity="0.1" d="M327.935 239H311.981V259.678H327.935V239Z" fill="#8D1919"/>
<path opacity="0.1" d="M327.93 297.73C328.091 297.73 328.247 297.73 328.404 297.758H327.93V302.562H311.981V281.86H327.93V297.73Z" fill="#8D1919"/>
<path opacity="0.1" d="M327.93 324.712V340.685C322.598 340.234 317.281 339.62 311.981 338.844V324.712H327.93Z" fill="#8D1919"/>
<path opacity="0.1" d="M248.499 224.016H180.123V225.535H248.499V224.016Z" fill="#8D1919"/>
<path opacity="0.1" d="M248.499 227.556H180.123V233.377H248.499V227.556Z" fill="#8D1919"/>
<path opacity="0.1" d="M248.499 252.46H180.123V261.822H248.499V252.46Z" fill="#8D1919"/>
<path opacity="0.1" d="M248.494 280.904V290.266H195.013C192.691 288.493 190.397 286.672 188.131 284.804C186.565 283.512 185.012 282.187 183.431 280.904H248.494Z" fill="#8D1919"/>
<path opacity="0.1" d="M248.494 309.344V318.696H242.848C236.503 315.835 230.282 312.712 224.186 309.33L248.494 309.344Z" fill="#8D1919"/>
<path opacity="0.1" d="M380.65 166.407H367.19V179.867H380.65V166.407Z" fill="#8D1919"/>
<path opacity="0.1" d="M84.4532 100.337H70.9929V113.797H84.4532V100.337Z" fill="#8D1919"/>
<path opacity="0.1" d="M89.2097 134.958H75.7494V148.418H89.2097V134.958Z" fill="#8D1919"/>
<path opacity="0.1" d="M89.2097 166.223H75.7494V179.683H89.2097V166.223Z" fill="#8D1919"/>
<path opacity="0.1" d="M89.2097 197.483H75.7494V210.944H89.2097V197.483Z" fill="#8D1919"/>
<path opacity="0.1" d="M89.2097 228.748H75.7494V242.208H89.2097V228.748Z" fill="#8D1919"/>
<path opacity="0.1" d="M89.2097 260.014H75.7494V273.474H89.2097V260.014Z" fill="#8D1919"/>
<path opacity="0.1" d="M432.034 166.407H418.574V179.867H432.034V166.407Z" fill="#8D1919"/>
<path opacity="0.1" d="M380.65 199.608H367.19V213.069H380.65V199.608Z" fill="#8D1919"/>
<path opacity="0.1" d="M432.034 199.608H418.574V213.069H432.034V199.608Z" fill="#8D1919"/>
<path opacity="0.1" d="M380.65 232.805H367.19V246.265H380.65V232.805Z" fill="#8D1919"/>
<path opacity="0.1" d="M432.034 232.805H418.574V246.265H432.034V232.805Z" fill="#8D1919"/>
<path opacity="0.1" d="M380.65 266.006H367.19V279.466H380.65V266.006Z" fill="#8D1919"/>
<path opacity="0.1" d="M432.034 266.006H418.574V279.466H432.034V266.006Z" fill="#8D1919"/>
<path opacity="0.1" d="M380.65 299.206H367.19V312.666H380.65V299.206Z" fill="#8D1919"/>
<path opacity="0.1" d="M432.034 299.206H418.574V312.666H432.034V299.206Z" fill="#8D1919"/>
<path opacity="0.1" d="M367.19 341.082V332.402H380.645V339.847L367.19 341.082Z" fill="#8D1919"/>
<path opacity="0.1" d="M8.51915 141.214V148.914H54.5841V141.214H8.51915ZM13.11 148.431H9.35213V141.687H13.1384L13.11 148.431ZM17.6962 148.431H13.9099V141.687H17.6962V148.431ZM22.2728 148.431H18.4866V141.687H22.2728V148.431ZM26.859 148.431H23.0774V141.687H26.8637L26.859 148.431ZM31.4404 148.431H27.6541V141.687H31.4404V148.431ZM36.0265 148.431H32.2402V141.687H36.0265V148.431ZM40.6127 148.431H36.8264V141.687H40.6127V148.431ZM45.1941 148.431H41.4078V141.687H45.1941V148.431ZM49.7755 148.431H45.9892V141.687H49.7755V148.431ZM54.3569 148.431H50.5706V141.687H54.3569V148.431Z" fill="#8D1919"/>
<path opacity="0.1" d="M8.51915 163.619V171.319H54.5841V163.619H8.51915ZM13.11 170.832H9.35213V164.107H13.1384L13.11 170.832ZM17.6962 170.832H13.9099V164.107H17.6962V170.832ZM22.2728 170.832H18.4866V164.107H22.2728V170.832ZM26.859 170.832H23.0774V164.107H26.8637L26.859 170.832ZM31.4404 170.832H27.6541V164.107H31.4404V170.832ZM36.0265 170.832H32.2402V164.107H36.0265V170.832ZM40.6127 170.832H36.8264V164.107H40.6127V170.832ZM45.1941 170.832H41.4078V164.107H45.1941V170.832ZM49.7755 170.832H45.9892V164.107H49.7755V170.832ZM54.3569 170.832H50.5706V164.107H54.3569V170.832Z" fill="#8D1919"/>
<path opacity="0.1" d="M8.51915 186.034V193.749H54.5841V186.034H8.51915ZM13.11 193.247H9.35213V186.517H13.1384L13.11 193.247ZM17.6962 193.247H13.9099V186.517H17.6962V193.247ZM22.2728 193.247H18.4866V186.517H22.2728V193.247ZM26.859 193.247H23.0774V186.517H26.8637L26.859 193.247ZM31.4404 193.247H27.6541V186.517H31.4404V193.247ZM36.0265 193.247H32.2402V186.517H36.0265V193.247ZM40.6127 193.247H36.8264V186.517H40.6127V193.247ZM45.1941 193.247H41.4078V186.517H45.1941V193.247ZM49.7755 193.247H45.9892V186.517H49.7755V193.247ZM54.3569 193.247H50.5706V186.517H54.3569V193.247Z" fill="#8D1919"/>
<path opacity="0.1" d="M8.51915 208.449V216.14H54.5841V208.449H8.51915ZM13.11 215.662H9.35213V208.927H13.1384L13.11 215.662ZM17.6962 215.662H13.9099V208.927H17.6962V215.662ZM22.2728 215.662H18.4866V208.927H22.2728V215.662ZM26.859 215.662H23.0774V208.927H26.8637L26.859 215.662ZM31.4404 215.662H27.6541V208.927H31.4404V215.662ZM36.0265 215.662H32.2402V208.927H36.0265V215.662ZM40.6127 215.662H36.8264V208.927H40.6127V215.662ZM45.1941 215.662H41.4078V208.927H45.1941V215.662ZM49.7755 215.662H45.9892V208.927H49.7755V215.662ZM54.3569 215.662H50.5706V208.927H54.3569V215.662Z" fill="#8D1919"/>
<path opacity="0.1" d="M8.71793 230.859C8.90252 231.584 9.11076 232.308 9.32847 233.022V231.342H13.1148V238.072H11.0891C11.1506 238.228 11.2121 238.399 11.2737 238.546H54.5841V230.859H8.71793ZM17.7104 238.072H13.9241V231.342H17.7104V238.072ZM22.287 238.072H18.5008V231.342H22.287V238.072ZM26.8732 238.072H23.0774V231.342H26.8637L26.8732 238.072ZM31.4546 238.072H27.6683V231.342H31.4546V238.072ZM36.0407 238.072H32.2544V231.342H36.0407V238.072ZM40.6269 238.072H36.8406V231.342H40.6269V238.072ZM45.2083 238.072H41.422V231.342H45.2083V238.072ZM49.7897 238.072H46.0034V231.342H49.7897V238.072ZM54.3711 238.072H50.5848V231.342H54.3711V238.072Z" fill="#8D1919"/>
<path opacity="0.1" d="M19.4142 253.274C19.5325 253.426 19.6461 253.596 19.7692 253.748H22.2728V256.98C22.5426 257.302 22.8077 257.624 23.0822 257.927V253.729H26.8685V260.483H25.335C25.4865 260.639 25.6332 260.804 25.8083 260.956H54.5983V253.274H19.4142ZM31.4404 260.483H27.6541V253.757H31.4404V260.483ZM36.0265 260.483H32.2403V253.757H36.0265V260.483ZM40.6127 260.483H36.8264V253.757H40.6127V260.483ZM45.1941 260.483H41.4078V253.757H45.1941V260.483ZM49.7755 260.483H45.9892V253.757H49.7755V260.483ZM54.3569 260.483H50.5706V253.757H54.3569V260.483Z" fill="#8D1919"/>
<path opacity="0.1" d="M44.6829 275.685C45.1136 275.931 45.5538 276.158 45.9987 276.404V276.167H49.7849V278.297L50.5895 278.671V276.167H54.3758V280.261C54.4484 280.297 54.5246 280.326 54.603 280.346V275.685H44.6829Z" fill="#8D1919"/>
<path opacity="0.1" d="M357.085 158.039H357.113H357.085ZM327.93 297.725H328.404H327.93ZM297.512 226.652C297.602 226.955 297.678 227.257 297.763 227.556C297.687 227.257 297.607 226.955 297.512 226.652ZM357.085 158.025H357.113H357.085ZM71.2201 87.1553V89.1762H92.3618V87.1553H71.2201ZM327.93 297.725H328.404H327.93ZM297.512 226.652C297.602 226.955 297.678 227.257 297.763 227.556C297.687 227.257 297.607 226.955 297.512 226.652ZM357.085 158.025H357.113H357.085ZM327.93 297.711H328.404H327.93ZM297.512 226.652C297.602 226.955 297.678 227.257 297.763 227.556C297.687 227.257 297.607 226.955 297.512 226.652Z" fill="#8D1919"/>
<path opacity="0.1" d="M62.8192 359.976C88.2889 359.976 108.936 356.66 108.936 352.569C108.936 348.478 88.2889 345.162 62.8192 345.162C37.3495 345.162 16.7022 348.478 16.7022 352.569C16.7022 356.66 37.3495 359.976 62.8192 359.976Z" fill="#6C63FF"/>
<path d="M64.3053 210.679H61.3378V277.492H64.3053V210.679Z" fill="#535461"/>
<path d="M82.9529 277.289L82.7683 280.299L82.5032 284.559L82.3944 286.329L82.1341 290.588L82.0205 292.358L81.7554 296.618L78.7643 344.926C78.6343 347.005 77.7171 348.956 76.1995 350.382C74.6819 351.808 72.6779 352.602 70.5954 352.603H55.0432C52.9611 352.602 50.9576 351.808 49.4408 350.381C47.924 348.955 47.0078 347.004 46.879 344.926L43.902 296.585L43.637 292.325L43.5281 290.555L43.2631 286.296L43.1542 284.526L42.8892 280.266L42.6999 277.256C42.667 276.676 42.7528 276.097 42.9521 275.552C43.1514 275.007 43.46 274.508 43.8588 274.087C44.2577 273.665 44.7385 273.33 45.2716 273.101C45.8048 272.872 46.3792 272.754 46.9595 272.755H78.769C79.3471 272.76 79.918 272.883 80.4466 273.117C80.9751 273.352 81.4501 273.692 81.8421 274.117C82.2342 274.541 82.535 275.042 82.726 275.588C82.9171 276.133 82.9943 276.712 82.9529 277.289Z" fill="#3F3D56"/>
<path d="M82.7683 280.299L82.5032 284.544H43.1353L42.8703 280.299H82.7683Z" fill="#9D9CB5"/>
<path d="M82.3944 286.314L82.1341 290.565H43.5092L43.2441 286.314H82.3944Z" fill="#9D9CB5"/>
<path d="M82.0205 292.339L81.7602 296.584H43.8831L43.618 292.339H82.0205Z" fill="#9D9CB5"/>
<path d="M38.3409 235.72C55.6206 248.224 62.8335 267.78 62.8335 267.78C62.8335 267.78 42.0089 267.066 24.7245 254.562C7.44006 242.057 0.241379 222.506 0.241379 222.506C0.241379 222.506 21.0565 223.216 38.3409 235.72Z" fill="#6370FF"/>
<path d="M0.227173 222.506C0.227173 222.506 21.8469 234.504 28.7805 244.438C35.7142 254.372 62.8334 267.78 62.8334 267.78" stroke="#535461" stroke-width="0.946572" stroke-miterlimit="10"/>
<path d="M49.4962 210.532C58.9004 217.333 62.8334 227.977 62.8334 227.977C62.8334 227.977 51.4982 227.589 42.0893 220.788C32.6804 213.987 28.7568 203.338 28.7568 203.338C28.7568 203.338 40.0873 203.726 49.4962 210.532Z" fill="#6370FF"/>
<path d="M28.7568 203.338C28.7568 203.338 40.5227 209.869 44.2948 215.274C48.0669 220.679 62.8334 227.977 62.8334 227.977" stroke="#535461" stroke-width="0.946572" stroke-miterlimit="10"/>
<path d="M76.4878 227.438C65.6826 239.313 63.3967 254.832 63.3967 254.832C63.3967 254.832 78.6317 251.093 89.4274 239.213C100.223 227.334 102.518 211.819 102.518 211.819C102.518 211.819 87.2929 215.563 76.4878 227.438Z" fill="#6370FF"/>
<path d="M102.528 211.824C102.528 211.824 88.4524 223.997 84.8744 232.384C81.2963 240.77 63.3967 254.832 63.3967 254.832" stroke="#535461" stroke-width="0.946572" stroke-miterlimit="10"/>
</g>
<path opacity="0.16" d="M424.561 428.314C456.343 428.314 482.108 424.998 482.108 420.907C482.108 416.816 456.343 413.5 424.561 413.5C392.779 413.5 367.014 416.816 367.014 420.907C367.014 424.998 392.779 428.314 424.561 428.314Z" fill="#6C63FF"/>
<path d="M473.13 281.112C473.13 281.112 465.316 242.236 468.307 237.399C468.307 237.399 468.416 232.903 468.236 227.171C468.236 226.954 468.236 226.736 468.236 226.514C468.762 226.864 469.311 227.181 469.878 227.46C472.634 228.876 475.798 229.284 478.823 228.615L476.457 225.979C475.889 225.349 475.297 224.668 475.174 223.835C475.051 223.002 475.392 222.259 475.686 221.516C477.934 215.836 478.052 208.694 473.721 204.359C470.063 200.715 469.173 196.01 465.202 192.683C462.301 190.246 460.706 186.672 459.201 183.217C457.928 180.297 456.645 177.353 455.916 174.258C455.348 171.84 455.121 169.336 454.34 166.974C453.559 164.612 452.097 162.317 449.811 161.262C448.997 160.888 448.093 160.675 447.35 160.178C446.375 159.52 445.788 158.45 445.083 157.513C441.5 152.78 429.502 155.568 423.823 157.49C422.279 157.973 420.849 158.766 419.62 159.818L419.672 159.733C419.715 159.662 419.767 159.591 419.814 159.52C419.192 160.023 418.655 160.622 418.224 161.295C417.396 162.606 417.05 164.134 416.359 165.554C415.526 167.234 410.893 171.925 412.885 173.813C413.025 173.94 413.185 174.042 413.358 174.116C414.106 174.427 414.93 174.51 415.725 174.353L415.64 174.556C414.959 176.222 414.61 178.005 414.613 179.805C414.613 187.581 421.026 193.885 428.944 193.885C430.432 193.887 431.912 193.658 433.331 193.208C433.364 193.388 433.393 193.568 433.426 193.748C433.426 193.819 433.449 193.89 433.459 193.961L433.208 194.311C433.196 194.29 433.181 194.269 433.165 194.25L425.735 204.634C424.599 205.433 418.058 210.166 417.689 213.716C417.301 217.602 416.913 222.15 416.913 222.15L416.861 223.125C416.536 223.396 416.156 223.594 415.748 223.704C415.339 223.814 414.912 223.835 414.494 223.764C412.175 223.385 412.175 232.283 412.175 232.283C412.175 232.283 410.632 233.703 409.572 232.472C408.512 231.242 405.71 235.411 405.71 235.411L388.151 236.169L387.749 236.192L386.802 233.263C386.7 232.954 386.481 232.697 386.191 232.549C385.901 232.401 385.565 232.374 385.255 232.472C385.181 232.496 385.11 232.526 385.042 232.562L384.975 232.6L384.852 232.685L384.791 232.742C384.757 232.773 384.725 232.806 384.696 232.841L384.639 232.908L384.611 232.936C384.502 233.087 384.429 233.262 384.4 233.446C384.37 233.63 384.384 233.818 384.441 233.996L385.255 236.509C381.866 237.191 378.402 239.112 381.227 244.404L366.905 241.758L371.539 245.649L395.459 250.585C395.142 251.153 395.35 251.976 396.339 253.136C400.599 258.139 408.361 259.497 411.484 259.847C412.309 261.692 413.34 263.439 414.556 265.053L414.286 270.037C414.286 270.037 406.377 308.023 404.929 309.949C405.66 309.121 406.329 308.24 406.931 307.313C404.636 315.117 401.427 325.8 400.584 327.399C399.231 329.955 397.977 340.296 399.52 340.959C399.993 341.162 401.346 341.063 403.277 340.916V341.773L403.192 374.236C403.192 374.236 403.58 394.147 402.515 396.045C401.451 397.942 401.167 401.923 401.167 401.923C401.167 401.923 396.907 409.775 393.532 412.931C393.509 412.956 393.484 412.978 393.457 412.998L393.353 412.259C393.353 412.259 389.297 417.38 380.323 417.092C380.323 417.092 374.923 420.603 382.931 420.793C390.939 420.982 401.167 420.509 401.167 420.509C401.167 420.509 408.308 409.623 414.291 411.043V419.292H416.122V410.911C416.972 410.351 417.699 409.625 418.259 408.777C418.82 407.928 419.202 406.975 419.383 405.974C419.54 404.943 419.425 403.888 419.05 402.915C418.675 401.941 418.053 401.082 417.244 400.423C416.881 400.094 416.59 399.694 416.388 399.248C416.187 398.802 416.081 398.318 416.075 397.829L416.009 397.886C416.009 397.72 415.966 397.55 415.947 397.375C415.422 393.115 414.764 384.326 417.088 377.823C420.273 368.906 421.239 356.487 418.92 349.095C418.171 346.732 417.557 344.328 417.078 341.896C417.022 341.588 416.97 341.295 416.922 341.02C418.508 341.235 420.077 341.551 421.622 341.967C426.994 343.448 438.746 343.723 448.779 343.642C448.803 343.917 448.831 344.206 448.864 344.494C449.043 346.501 449.417 348.486 449.981 350.42C451.24 354.206 451.818 370.899 451.818 370.899C451.818 370.899 453.441 384.624 452.556 390.209C452.083 393.314 451.609 396.433 451.34 399.566V399.627C451.34 399.627 448.68 407.2 446.735 411.313C446.687 411.417 446.635 411.521 446.588 411.62C446.069 411.668 445.559 411.781 445.069 411.956C445.069 411.956 442.461 417.163 439.862 418.024C437.264 418.885 438.125 421.72 444.008 420.679C449.891 419.638 458.775 418.786 458.775 418.786L459.158 413.476L460.966 411.213L460.493 416.509L462.419 416.131L462.164 409.689L465.122 405.988C465.122 405.988 468.695 402.808 463.385 396.551V396.688C463.328 396.598 463.276 396.504 463.214 396.414V396.385C462.334 395.022 461.634 392.481 462.916 387.97C465.235 379.82 466.584 372.423 466.584 372.423C466.584 372.423 471.762 352.606 465.538 343.231H465.813C465.175 341.911 464.724 340.51 464.473 339.066C464.442 338.895 464.413 338.72 464.388 338.54C468.993 338.275 473.513 337.442 477.2 335.644C477.186 335.625 474.966 288.599 473.13 281.112ZM414.665 248.313V248.408L413.718 248.455L414.665 248.313ZM411.418 248.763C411.262 248.797 411.117 248.867 410.992 248.966C410.585 249.542 410.33 250.211 410.249 250.911L408.772 250.58C408.772 250.58 407.736 250.358 406.245 250.107L405.54 249.397C407.48 249.236 409.496 248.999 411.418 248.763Z" fill="url(#paint0_linear)"/>
<path d="M460.275 409.756L459.712 416.463L461.601 416.085L461.317 408.81L460.275 409.756Z" fill="#1D2366"/>
<path d="M417.192 377.914C414.916 384.398 415.559 393.149 416.07 397.399C416.26 398.97 416.435 399.926 416.435 399.926C416.435 399.926 413.032 407.678 412.748 407.972C412.464 408.265 402.733 414.205 402.733 414.205L395.932 418.176C395.932 418.176 389.032 415.152 392.34 414.11C393.016 413.839 393.625 413.424 394.124 412.894C397.437 409.747 401.597 401.923 401.597 401.923C401.597 401.923 401.881 397.952 402.922 396.064C403.964 394.176 403.585 374.331 403.585 374.331L403.666 341.982V337.765L416.61 337.859C416.692 339.291 416.878 340.715 417.168 342.119C417.633 344.543 418.235 346.938 418.972 349.294C421.253 356.672 420.306 369.03 417.192 377.914Z" fill="#704F54"/>
<path opacity="0.1" d="M416.435 399.926C416.435 399.926 413.032 407.679 412.748 407.972C412.464 408.265 402.733 414.205 402.733 414.205L395.932 418.176C395.932 418.176 389.032 415.152 392.34 414.11C393.016 413.839 393.625 413.424 394.124 412.894L394.418 414.962L396.685 414.868L416.089 397.408C416.26 398.97 416.435 399.926 416.435 399.926Z" fill="black"/>
<path d="M416.198 397.848L396.685 415.426L394.418 415.52L393.944 412.207C393.944 412.207 389.978 417.309 381.166 417.025C381.166 417.025 375.874 420.523 383.717 420.712C391.559 420.901 401.574 420.428 401.574 420.428C401.574 420.428 408.569 409.543 414.423 410.962V419.183H416.222V410.887C417.058 410.324 417.772 409.598 418.32 408.752C418.868 407.906 419.24 406.958 419.412 405.965C419.568 404.941 419.457 403.895 419.092 402.927C418.726 401.959 418.118 401.101 417.325 400.437C416.97 400.104 416.688 399.704 416.494 399.258C416.3 398.813 416.2 398.333 416.198 397.848Z" fill="#1D2366"/>
<path d="M462.074 388.023C460.815 392.519 461.501 395.051 462.363 396.41V396.438C463.467 398.115 464.236 399.991 464.625 401.961L464.701 402.387L455.822 415.331L451.004 417.225C451.004 417.225 443.256 414.579 444.671 413.822C445.026 413.637 445.58 412.653 446.214 411.294C448.107 407.2 450.72 399.647 450.72 399.647V399.585C450.994 396.466 451.43 393.357 451.912 390.261C452.778 384.691 451.188 371.018 451.188 371.018C451.188 371.018 450.62 354.391 449.39 350.61C448.834 348.687 448.465 346.715 448.287 344.722C448.031 342.356 447.975 340.406 447.975 340.406C447.975 340.406 453.077 333.306 462.429 340.974C463.177 341.585 463.835 342.299 464.383 343.094C470.844 352.285 465.642 372.532 465.642 372.532C465.642 372.532 464.341 379.897 462.074 388.023Z" fill="#704F54"/>
<path opacity="0.1" d="M464.715 402.387L455.836 415.331L451.018 417.225C451.018 417.225 443.27 414.579 444.685 413.822C445.04 413.637 445.594 412.653 446.228 411.294C449.508 411.266 451.207 414.39 451.207 414.39L455.363 413.727C455.363 413.727 460.843 402.955 462.074 402.297C463.304 401.639 462.263 397.38 462.263 397.38V396.296C462.296 396.334 462.325 396.376 462.363 396.414V396.443C463.467 398.12 464.236 399.996 464.625 401.966L464.715 402.387Z" fill="black"/>
<path d="M451.491 414.669C451.491 414.669 449.125 410.324 444.591 411.928C444.591 411.928 442.04 417.135 439.489 417.977C436.938 418.82 437.79 421.659 443.554 420.623C449.319 419.586 458.008 418.73 458.008 418.73L458.387 413.433L464.246 405.97C464.246 405.97 467.739 402.803 462.542 396.57V397.654C462.542 397.654 463.584 401.914 462.353 402.572C461.123 403.229 455.661 414.006 455.661 414.006L451.491 414.669Z" fill="#1D2366"/>
<path opacity="0.1" d="M416.624 337.85C416.706 339.281 416.892 340.705 417.183 342.109C411.853 341.328 406.908 341.716 403.666 341.972V337.755L416.624 337.85Z" fill="black"/>
<path opacity="0.1" d="M464.909 344.272C464.909 344.272 457.336 344.641 448.306 344.717C448.05 342.351 447.994 340.401 447.994 340.401C447.994 340.401 453.096 333.301 462.448 340.969C463.196 341.58 463.854 342.294 464.402 343.089C464.549 343.492 464.718 343.887 464.909 344.272Z" fill="black"/>
<path d="M464.909 343.42C464.909 343.42 431.741 345.025 421.631 342.19C411.522 339.355 401.503 341.811 399.993 341.153C398.483 340.495 399.709 330.192 401.034 327.641C402.359 325.09 409.629 299.291 409.629 299.291L416.624 262.82L423.993 260.789L424.514 260.642L437.354 257.102L446.763 254.504C446.763 254.504 465.472 327.546 463.867 332.932C463.285 334.995 463.191 337.164 463.593 339.269C463.838 340.707 464.281 342.104 464.909 343.42Z" fill="#3F3D56"/>
<path d="M392.24 237.878C392.24 237.878 385.614 244.977 390.631 248.934C395.648 252.891 398.947 249.313 398.947 249.313L392.24 237.878Z" fill="#C7DAF5"/>
<path opacity="0.1" d="M392.24 237.878C392.24 237.878 385.614 244.977 390.631 248.934C395.648 252.891 398.947 249.313 398.947 249.313L392.24 237.878Z" fill="black"/>
<path d="M445.774 191.201C445.774 191.201 444.998 191.94 443.829 193.028C442.163 194.585 439.697 196.862 437.51 198.769C434.481 201.405 431.982 203.341 432.877 201.689C433.771 200.038 433.601 197.16 433.156 194.467C433.123 194.287 433.094 194.107 433.061 193.932C432.693 191.954 432.205 190.001 431.599 188.082C431.599 188.082 436.493 181.759 439.2 179.265C440.208 178.318 440.913 177.93 440.956 178.588C441.003 179.473 441.666 181.428 442.489 183.501C442.513 183.567 442.537 183.629 442.565 183.695C443.114 185.115 443.734 186.573 444.278 187.831C445.111 189.762 445.774 191.201 445.774 191.201Z" fill="#704F54"/>
<path opacity="0.1" d="M442.565 183.695C442.105 186.169 440.989 188.473 439.334 190.368C437.679 192.263 435.545 193.679 433.156 194.467C432.78 192.307 432.259 190.174 431.599 188.083C431.599 188.083 440.814 176.179 440.956 178.588C440.989 179.502 441.708 181.528 442.565 183.695Z" fill="black"/>
<path opacity="0.1" d="M432.238 197.648L433.431 195.968C433.431 195.968 434.221 200.786 437.127 198.661C440.033 196.536 440.175 214.653 440.175 214.653L437.056 261.286L414.518 259.937L415.157 237.404L417.708 226.045L424.017 209.532L427.77 204.075L432.238 197.648Z" fill="black"/>
<path d="M440.175 214.942L437.335 257.107L437.037 261.575L424.471 260.823L423.998 260.794L414.532 260.226L415.171 237.689L417.722 226.33L424.031 209.817L427.784 204.36L432.252 197.909L433.445 196.233C433.445 196.233 434.235 201.051 437.141 198.926L437.203 198.884C440.042 197.085 440.175 214.942 440.175 214.942Z" fill="#3F3D56"/>
<path d="M418.039 222.382C418.039 222.382 416.908 224.748 414.636 224.365C412.365 223.982 412.369 232.884 412.369 232.884C412.369 232.884 410.86 234.304 409.818 233.073C408.777 231.843 406.032 236.003 406.032 236.003L388.833 236.76C388.833 236.76 396.486 240.258 394.986 250.841C394.986 250.841 420.969 249.231 421.821 246.775C422.673 244.319 418.039 222.382 418.039 222.382Z" fill="white"/>
<path opacity="0.03" d="M418.039 222.382C418.039 222.382 416.908 224.748 414.636 224.365C412.365 223.982 412.369 232.884 412.369 232.884C412.369 232.884 410.86 234.304 409.818 233.073C408.777 231.843 406.032 236.003 406.032 236.003L388.833 236.76C388.833 236.76 396.486 240.258 394.986 250.841C394.986 250.841 420.969 249.231 421.821 246.775C422.673 244.319 418.039 222.382 418.039 222.382Z" fill="black"/>
<path d="M368.056 242.321L372.59 246.193L409.913 254.035L405.284 249.312L368.056 242.321Z" fill="white"/>
<path d="M432.309 199.139C431.689 200.086 429.914 204.932 428.433 209.163C427.197 212.689 426.166 215.789 426.166 215.789C426.166 215.789 423.757 231.474 422.526 234.309C421.296 237.144 421.963 248.2 421.963 248.2L417.377 275.504C417.377 275.504 415.299 289.584 412.09 297.994C408.924 306.272 405.398 310.153 405.289 310.276C406.709 308.355 414.447 270.52 414.447 270.52L417.003 222.803C417.003 222.803 417.377 218.269 417.755 214.393C418.134 210.517 425.801 205.226 425.801 205.226L433.194 194.714C433.937 195.708 433.44 197.44 432.309 199.139Z" fill="white"/>
<path d="M413.032 260.463C413.032 260.463 402.146 259.99 396.874 253.657C391.602 247.325 409.061 251.13 409.061 251.13L413.6 252.171L413.032 260.463Z" fill="#715B52"/>
<path opacity="0.1" d="M463.868 332.937C463.285 334.999 463.191 337.169 463.593 339.274C451.718 340.116 439.015 336.907 439.015 336.907C436.649 339.085 430.416 342.293 430.416 342.293L427.018 300.171C424.845 294.492 423.993 264.736 423.993 264.736C423.993 264.736 424.187 263.179 424.467 260.846C424.467 260.789 424.467 260.727 424.49 260.671C425.337 254.153 427.018 241.919 427.841 240.267C428.977 237.995 424.348 231.952 424.348 231.952L426.454 213.99L426.71 211.823C431.149 209.84 434.552 203.507 434.552 203.507L437.165 198.93C440.005 197.108 440.151 214.965 440.151 214.965L437.312 257.13L446.72 254.532C446.72 254.532 465.472 327.551 463.868 332.937Z" fill="black"/>
<path d="M476.055 335.847C463.11 342.275 439.583 336.321 439.583 336.321C437.217 338.498 430.984 341.707 430.984 341.707L427.581 299.584C425.413 293.905 424.561 264.149 424.561 264.149C424.561 264.149 427.297 241.947 428.433 239.68C428.764 239.018 428.603 238.033 428.21 236.973C426.279 231.927 425.569 226.496 426.137 221.123L427.046 213.404L427.297 211.241C431.741 209.253 435.144 202.92 435.144 202.92L437.51 198.774L441.865 191.135L443.928 187.52L444.278 187.837L446.952 190.26C446.952 190.26 448.088 191.206 449.792 192.626C453.498 195.75 459.901 201.25 463.205 204.615C466.111 207.577 467.029 219.102 467.294 227.777C467.469 233.49 467.365 237.967 467.365 237.967C464.436 242.79 472.098 281.509 472.098 281.509C473.882 288.992 476.055 335.847 476.055 335.847Z" fill="white"/>
<path opacity="0.03" d="M451.207 202.826C451.207 202.826 442.324 219.736 443.355 226.163C444.387 232.591 447.322 239.865 445.906 241.564C445.42 242.208 444.792 242.73 444.07 243.091C443.348 243.451 442.553 243.64 441.746 243.642C440.326 243.737 436.54 246.382 436.54 246.666C436.54 246.95 433.042 246.95 429.914 248.275C426.786 249.601 422.166 250.353 422.166 250.353C422.166 250.353 413.174 250.069 412.336 250.921C411.499 251.773 410.637 256.87 412.431 260.936C414.225 265.001 416.217 268.035 417.722 268.589C419.227 269.143 428.778 265.943 436.526 265.186C444.274 264.429 452.684 258.29 452.684 258.29C452.684 258.29 461.946 254.977 463.569 249.407C465.193 243.836 461.586 213.219 461.586 213.219C461.586 213.219 458.86 198.95 451.207 202.826Z" fill="black"/>
<path opacity="0.03" d="M450.071 201.406C450.071 201.406 441.188 218.321 442.229 224.743C443.27 231.166 446.195 238.445 444.775 240.149C444.291 240.793 443.663 241.316 442.942 241.677C442.221 242.037 441.426 242.225 440.62 242.226C439.2 242.321 435.414 244.967 435.414 245.251C435.414 245.535 431.916 245.535 428.788 246.855C425.659 248.176 421.04 248.933 421.04 248.933C421.04 248.933 412.048 248.649 411.215 249.501C410.382 250.353 409.511 255.455 411.309 259.516C413.108 263.576 415.095 266.615 416.601 267.169C418.106 267.722 427.656 264.523 435.404 263.77C443.152 263.018 451.562 256.87 451.562 256.87C451.562 256.87 460.82 253.557 462.424 247.991C464.029 242.425 460.441 211.799 460.441 211.799C460.441 211.799 457.724 197.534 450.071 201.406Z" fill="black"/>
<path d="M450.928 201.973C450.928 201.973 442.044 218.889 443.086 225.311C444.127 231.734 447.052 239.013 445.637 240.712C445.152 241.358 444.524 241.882 443.802 242.244C443.08 242.605 442.284 242.794 441.476 242.794C440.057 242.889 436.27 245.535 436.27 245.814C436.27 246.093 432.777 246.098 429.644 247.423C426.511 248.748 421.897 249.501 421.897 249.501C421.897 249.501 412.904 249.217 412.066 250.069C411.229 250.921 410.367 256.023 412.161 260.084C413.955 264.144 415.947 267.183 417.452 267.737C418.957 268.29 428.508 265.091 436.256 264.334C444.004 263.576 452.414 257.438 452.414 257.438C452.414 257.438 461.676 254.125 463.3 248.554C464.923 242.984 461.34 212.367 461.34 212.367C461.34 212.367 458.576 198.121 450.928 201.973Z" fill="white"/>
<path opacity="0.1" d="M450.734 247.343C450.734 247.343 443.634 245.923 446.105 248.29C448.576 250.657 448.562 252.73 451.586 252.635C454.611 252.541 450.734 247.343 450.734 247.343Z" fill="black"/>
<path opacity="0.1" d="M462.732 298.259C462.732 298.259 459.523 300.431 465.662 305.439C471.801 310.447 462.732 298.259 462.732 298.259Z" fill="black"/>
<path opacity="0.1" d="M456.607 316.116C456.607 316.4 455.471 326.528 459.722 329.061C463.972 331.593 456.607 316.116 456.607 316.116Z" fill="black"/>
<path d="M389.126 236.737C385.7 236.856 378.297 237.902 382.136 245.062C385.529 251.4 391.232 247.164 394.441 243.95C393.659 240.954 391.756 238.372 389.126 236.737Z" fill="#715B52"/>
<path d="M394.484 243.893L394.626 243.746L394.484 243.893Z" fill="#FFB0B1"/>
<path opacity="0.1" d="M449.792 192.915C446.157 195.4 443.109 197.496 442.513 197.932C440.885 199.139 437.78 206.224 435.778 209.84C434.183 212.75 429.001 213.498 427.046 213.683L427.297 211.52C431.741 209.532 435.144 203.2 435.144 203.2L443.928 187.799L446.952 190.549C446.952 190.549 448.088 191.495 449.792 192.915Z" fill="black"/>
<path d="M449.792 192.631C446.157 195.116 443.109 197.212 442.513 197.652C440.885 198.855 437.78 205.94 435.778 209.556C434.183 212.466 429.001 213.214 427.046 213.399L427.297 211.236C431.741 209.248 435.144 202.915 435.144 202.915L443.928 187.515L446.952 190.255C446.952 190.255 448.088 191.192 449.792 192.631Z" fill="#DCE7FF"/>
<path d="M442.797 180.572C442.799 183.413 441.937 186.188 440.326 188.528C438.424 191.295 435.592 193.289 432.346 194.147C429.099 195.005 425.653 194.67 422.632 193.204C419.61 191.739 417.215 189.238 415.879 186.157C414.544 183.076 414.357 179.619 415.353 176.412C416.349 173.205 418.461 170.461 421.307 168.679C424.153 166.896 427.543 166.192 430.863 166.696C434.183 167.199 437.213 168.876 439.403 171.422C441.592 173.968 442.796 177.214 442.797 180.572Z" fill="#704F54"/>
<path opacity="0.1" d="M467.294 227.783C465.372 226.6 463.807 224.919 462.765 222.917C461.974 221.355 461.449 219.552 460.1 218.445C458.884 217.451 457.26 217.209 455.746 216.765C450.767 215.293 446.593 210.749 446.436 205.562C446.361 203.12 447.123 200.682 446.777 198.264C446.581 196.895 446.036 195.6 445.196 194.501C444.779 193.976 444.322 193.484 443.829 193.029C443.166 192.405 442.47 191.799 441.864 191.136C441.483 190.726 441.149 190.273 440.871 189.787C440.645 189.39 440.463 188.969 440.326 188.533C439.38 185.637 440.241 182.201 439.2 179.271L439.143 179.11C438.75 178.069 437.95 177.028 436.838 176.947C435.726 176.867 434.775 177.789 433.714 178.201C431.495 179.063 429.1 177.595 427.249 176.1C425.399 174.604 423.312 172.896 420.959 173.227C419.402 173.449 418.172 174.51 416.738 175.059C416.414 175.184 416.08 175.281 415.739 175.347C416.953 172.321 419.182 169.811 422.045 168.25C424.908 166.689 428.225 166.173 431.427 166.792C434.629 167.411 437.515 169.125 439.59 171.641C441.664 174.157 442.799 177.316 442.797 180.577C442.798 181.562 442.695 182.544 442.489 183.507C442.513 183.573 442.537 183.635 442.565 183.701C443.114 185.121 443.734 186.578 444.278 187.837L446.952 190.261C446.952 190.261 448.088 191.207 449.792 192.627C453.498 195.751 459.901 201.25 463.205 204.615C466.111 207.588 467.02 219.107 467.294 227.783Z" fill="black"/>
<path d="M416.572 166.411C417.249 165.034 417.585 163.491 418.394 162.185C419.582 160.292 421.655 159.08 423.785 158.346C429.346 156.43 441.098 153.647 444.61 158.346C445.301 159.293 445.873 160.344 446.829 160.997C447.558 161.494 448.438 161.707 449.238 162.081C451.477 163.131 452.906 165.422 453.668 167.76C454.43 170.098 454.657 172.607 455.216 175.016C455.931 178.106 457.185 181.036 458.434 183.946C459.906 187.383 461.468 190.946 464.308 193.374C468.184 196.687 469.041 201.378 472.638 205.012C476.897 209.329 476.76 216.452 474.564 222.108C474.275 222.851 473.949 223.627 474.062 224.417C474.176 225.208 474.763 225.927 475.316 226.556L477.645 229.183C472.136 230.513 465.903 227.636 463.337 222.586C462.547 221.024 462.022 219.225 460.668 218.113C459.457 217.119 457.828 216.882 456.319 216.438C451.34 214.961 447.165 210.413 447.009 205.225C446.933 202.788 447.695 200.351 447.35 197.937C447.158 196.559 446.611 195.254 445.764 194.151C444.463 192.451 442.499 191.311 441.439 189.418C439.645 186.251 441.008 182.139 439.716 178.74C439.318 177.699 438.523 176.658 437.411 176.577C436.299 176.497 435.347 177.42 434.282 177.832C432.067 178.693 429.673 177.231 427.822 175.73C425.972 174.23 423.884 172.526 421.527 172.862C419.97 173.08 418.744 174.14 417.31 174.694C416.25 175.101 414.102 175.465 413.174 174.571C411.214 172.767 415.753 168.096 416.572 166.411Z" fill="#422D3D"/>
<path opacity="0.1" d="M464.653 221.024C463.858 219.462 463.338 217.663 461.984 216.556C460.772 215.562 459.144 215.32 457.63 214.876C452.655 213.404 448.481 208.855 448.32 203.668C448.244 201.231 449.006 198.789 448.666 196.375C448.467 195.006 447.922 193.71 447.08 192.612C445.774 190.913 443.81 189.772 442.754 187.879C440.961 184.718 442.324 180.605 441.027 177.202C440.634 176.165 439.834 175.124 438.727 175.039C437.619 174.954 436.658 175.886 435.598 176.298C433.383 177.159 430.984 175.692 429.138 174.197C427.292 172.701 425.195 170.992 422.843 171.324C421.286 171.546 420.056 172.606 418.626 173.155C417.566 173.562 415.413 173.932 414.485 173.037C412.535 171.144 417.074 166.482 417.888 164.807C418.565 163.425 418.901 161.886 419.715 160.58C419.757 160.509 419.805 160.438 419.852 160.367C419.243 160.872 418.718 161.469 418.295 162.137C417.486 163.444 417.15 164.977 416.473 166.364C415.654 168.039 411.115 172.715 413.07 174.594C414.016 175.493 416.146 175.124 417.206 174.717C418.626 174.163 419.866 173.103 421.423 172.886C423.79 172.55 425.872 174.258 427.718 175.754C429.564 177.249 431.978 178.716 434.183 177.855C435.243 177.443 436.171 176.516 437.307 176.601C438.443 176.686 439.2 177.723 439.612 178.764C440.904 182.162 439.541 186.275 441.334 189.441C442.395 191.301 444.359 192.465 445.66 194.174C446.507 195.278 447.054 196.582 447.246 197.96C447.591 200.374 446.829 202.811 446.905 205.249C447.061 210.455 451.236 214.984 456.215 216.461C457.715 216.906 459.352 217.143 460.564 218.136C461.922 219.249 462.457 221.047 463.233 222.609C465.799 227.659 472.032 230.537 477.541 229.207L476.443 227.967C471.667 228.038 466.835 225.321 464.653 221.024Z" fill="black"/>
<path opacity="0.1" d="M432.025 199.423C431.405 200.369 429.63 205.216 428.149 209.447C426.762 208.907 425.503 205.467 425.503 205.467L432.896 194.95C433.653 195.991 433.156 197.719 432.025 199.423Z" fill="black"/>
<path d="M432.309 199.139C431.689 200.085 429.914 204.932 428.433 209.163C427.046 208.628 425.787 205.183 425.787 205.183L433.18 194.671C433.937 195.707 433.44 197.44 432.309 199.139Z" fill="#DCE7FF"/>
<path d="M389.325 247.49L385.226 234.565C385.178 234.413 385.16 234.254 385.173 234.095C385.186 233.937 385.231 233.783 385.304 233.642C385.377 233.501 385.477 233.375 385.598 233.273C385.72 233.17 385.86 233.093 386.012 233.045C386.317 232.95 386.647 232.979 386.931 233.126C387.215 233.273 387.429 233.527 387.527 233.831L391.625 246.742L391.218 249.445L389.325 247.49Z" fill="#BE8B87"/>
<path opacity="0.1" d="M385.614 233.428C385.92 233.332 386.252 233.36 386.536 233.507C386.821 233.655 387.036 233.909 387.134 234.214L391.232 247.125L390.925 249.151L391.223 249.463L391.63 246.761L387.508 233.849C387.41 233.545 387.196 233.292 386.912 233.145C386.628 232.998 386.298 232.969 385.993 233.064C385.736 233.147 385.515 233.314 385.364 233.537C385.444 233.494 385.528 233.458 385.614 233.428Z" fill="white"/>
<path d="M389.325 247.49L391.625 246.761L391.289 248.976L391.218 249.463L390.546 248.763L389.325 247.49Z" fill="#EFC8C4"/>
<path d="M390.546 248.763C390.586 248.712 390.636 248.67 390.693 248.64C390.726 248.619 390.765 248.607 390.804 248.607C390.843 248.607 390.882 248.619 390.915 248.64C390.948 248.679 390.975 248.722 390.996 248.767C391.027 248.82 391.07 248.864 391.12 248.898C391.171 248.931 391.229 248.953 391.289 248.961L391.218 249.435L390.546 248.763Z" fill="#727A9C"/>
<path d="M385.203 239.155C385.203 239.155 393.424 239.108 391.489 242.606C389.553 246.104 386.528 246.525 386.528 246.525L385.203 239.155Z" fill="#715B52"/>
<path opacity="0.14" d="M173.876 429.9C199.346 429.9 219.993 426.584 219.993 422.493C219.993 418.402 199.346 415.086 173.876 415.086C148.406 415.086 127.759 418.402 127.759 422.493C127.759 426.584 148.406 429.9 173.876 429.9Z" fill="#6C63FF"/>
<path d="M218.469 239.34C218.469 239.34 216.604 239.08 216.604 236.363C216.604 233.646 215.269 228.573 215.269 228.573C215.269 228.549 214.115 219.737 212.52 218.336C210.925 216.935 208.875 208.709 208.875 208.709C208.875 208.709 208.525 204.246 207.81 203.285C207.096 202.324 206.13 199.972 204.706 196.617C203.281 193.261 197.341 190.937 197.341 190.937C197.341 190.937 186.602 184.709 183.559 182.678C183.283 182.511 183.024 182.316 182.788 182.096C182.258 181.4 179.948 181.386 179.948 181.386C179.707 179.862 179.475 178.111 179.399 176.526C179.399 176.355 179.399 176.185 179.375 176.014C182.769 174.009 185.325 170.846 186.574 167.107C186.631 166.927 186.678 166.738 186.73 166.558C186.934 166.491 187.121 166.383 187.28 166.239C187.439 166.096 187.566 165.921 187.653 165.725C187.928 165.115 187.932 164.4 188.273 163.832C188.671 163.16 189.428 162.8 190.024 162.294C191.529 161.016 191.917 158.863 191.846 156.903C191.799 155.318 191.544 153.718 191.643 152.142L191.671 151.744C191.7 151.508 191.733 151.271 191.775 151.044C192.007 149.87 192.514 148.763 192.798 147.598C193.082 146.434 193.11 145.123 192.448 144.12C191.477 142.648 189.456 142.354 187.682 142.203C185.67 142.032 183.872 142.255 182.584 140.584C181.982 139.711 181.304 138.892 180.559 138.137C180.294 137.891 177.719 136.32 177.719 136.216C175.206 135.052 172.358 134.833 169.697 135.601C168.362 135.989 167.103 136.623 165.749 136.94C162.829 137.631 159.469 136.883 156.989 138.554C155.607 139.5 154.779 141.005 154.003 142.473C153.371 143.681 152.731 144.888 152.081 146.093C151.035 148.076 149.97 150.093 149.53 152.289C149.437 152.766 149.38 153.251 149.36 153.737V153.761C149.36 153.936 149.36 154.111 149.36 154.286V154.508C149.36 154.674 149.36 154.835 149.388 154.982C149.416 155.128 149.412 155.176 149.426 155.275C149.44 155.374 149.464 155.597 149.492 155.748C149.52 155.9 149.577 156.165 149.634 156.373C149.658 156.463 149.691 156.548 149.719 156.633C149.767 156.794 149.823 156.95 149.885 157.107C149.918 157.187 149.951 157.272 149.989 157.353C150.06 157.518 150.145 157.679 150.23 157.826C150.268 157.892 150.297 157.954 150.335 158.015C150.467 158.235 150.612 158.447 150.77 158.65C151.783 159.913 153.274 160.718 154.376 161.901C154.376 161.948 154.376 161.996 154.376 162.038C154.376 162.171 154.376 162.299 154.376 162.431C154.435 165.07 155.137 167.654 156.422 169.96C157.708 172.265 159.536 174.222 161.75 175.659C161.75 175.839 161.774 176.024 161.783 176.204C161.876 177.609 161.858 179.019 161.731 180.421C161.539 180.194 161.297 180.013 161.025 179.892C160.753 179.77 160.458 179.712 160.16 179.72C159.957 179.71 159.753 179.728 159.554 179.772L159.512 179.739V179.782C158.47 180.037 157.188 181.121 155.962 184.202C155.962 184.202 152.232 188.405 149.393 188.23C146.553 188.055 139.364 192.603 139.364 192.603C139.364 192.603 132.35 197.156 130.845 201.794C130.003 204.424 128.995 206.998 127.825 209.499L119.154 227.366L117.555 241.541C117.555 241.541 118.44 247.845 118.265 248.806C118.09 249.767 121.904 258.432 121.904 258.432C121.904 258.432 134.508 280.578 139.657 281.713L140.026 281.453C140.247 281.568 140.48 281.656 140.722 281.713L141.782 280.966C141.846 281.799 141.819 282.637 141.702 283.465C140.992 285.651 141.967 299.921 143.207 302.718C144.447 305.515 144.007 342.19 144.007 342.19L143.832 345.427C143.832 345.427 143.832 345.531 143.874 345.711L143.832 346.478L143.959 346.544C144.092 347.571 144.049 348.613 143.832 349.625C143.387 351.045 143.207 355.059 143.207 355.059C143.207 355.059 139.662 377.719 141.342 382.272C143.022 386.826 144.452 391.814 144.452 391.814C144.452 391.814 146.226 397.493 144.537 398.464C142.847 399.434 138.043 401.062 139.032 403.428C139.932 405.615 143.344 411.474 143.851 412.331L143.808 412.781L143.112 420.32C143.225 421.315 143.495 422.287 143.912 423.198C144.674 424.84 146.155 426.544 148.971 426.359C149.445 426.326 149.994 426.269 150.524 426.198C155.678 425.507 162.025 423.207 162.025 423.207C161.695 422.998 161.393 422.748 161.125 422.464C160.872 422.219 160.671 421.924 160.536 421.599C160.4 421.273 160.331 420.923 160.335 420.571C160.411 419.198 157.841 412.657 157.202 411.048C157.103 410.816 157.05 410.684 157.05 410.684C157.05 410.684 162.91 404.56 161.935 399.131C161.935 399.131 155.451 395.345 157.585 393.267C159.72 391.189 163.534 385.221 163.534 385.221C163.534 385.221 163.71 362.906 163.534 359.574C163.352 357.261 163.462 354.935 163.861 352.65C163.932 352.304 164.017 351.968 164.107 351.637C167.059 352.077 170.039 352.304 173.024 352.313C174.112 352.313 175.22 352.313 176.337 352.247C176.337 352.563 176.351 352.904 176.379 353.27C176.626 358.798 177.085 368.49 177.459 372.092C177.989 377.256 180.918 391.17 180.918 391.17C180.918 391.17 175.329 394.758 181.893 403.599C181.893 403.599 181.893 406.803 181.458 407.267C180.993 408.783 180.618 410.325 180.336 411.886C180.062 413.552 179.948 415.237 180.393 416.112C181.458 418.204 187.847 418.034 187.847 418.034L188.003 418.006C189.21 417.881 190.429 417.997 191.59 418.347C192.751 418.697 193.831 419.275 194.767 420.045C197.195 421.995 206.409 421.139 211.398 420.519C213.353 420.273 214.659 420.045 214.659 420.045C214.722 419.824 214.745 419.593 214.725 419.364C214.673 418.138 213.712 415.45 207.2 413.05C207.2 413.05 201.076 408.933 201.161 405.345H201.033H200.323C200.839 405.317 201.17 405.345 201.17 405.345C201.17 405.345 198.771 396.589 199.75 395.879C200.73 395.17 197.796 385.467 197.796 385.467C197.796 385.467 196.115 369.186 196.026 368.046C196.029 367.067 196.178 366.094 196.466 365.158L196.026 356.232C196.026 356.232 195.94 353.265 196.026 352.299C196.011 351.461 195.943 350.625 195.822 349.796C195.779 349.464 195.737 349.119 195.69 348.778C197.985 348.196 199.476 347.656 199.476 347.656L199.211 316.585C201.161 312.799 201.52 304.493 201.511 298.6C201.511 294.814 201.341 292.012 201.341 292.012L204.005 287.663C204.005 287.663 204.62 282.456 203.645 281.316C203.215 280.8 203.409 280.265 203.764 279.825C203.948 279.679 204.143 279.546 204.346 279.427C204.346 279.427 204.318 279.385 204.284 279.323C204.47 279.168 204.668 279.027 204.876 278.902C204.876 278.902 203.929 277.435 204.777 276.815C205.572 277.354 206.282 277.761 206.821 278.093C206.783 278.438 206.745 278.637 206.745 278.637L206.973 278.164C207.493 278.457 207.81 278.637 207.81 278.637C207.81 278.637 211.985 270.321 211.895 269.096C211.805 267.87 214.735 262.706 214.735 262.706C214.735 262.706 215.09 259.994 216.689 258.858C218.289 257.723 217.929 249.492 217.929 249.492C217.929 249.492 218.374 245.204 219.439 243.453C220.504 241.702 218.469 239.34 218.469 239.34ZM138.597 235.691L138.678 237.674C138.204 236.912 137.863 236.363 137.863 236.363L138.597 235.691Z" fill="url(#paint1_linear)"/>
<path d="M208.038 275.045L207.015 279.399C207.015 279.399 198.827 275.22 197.351 269.909C195.874 264.599 199.821 262.583 199.821 262.583L207.451 265.816L208.038 275.045Z" fill="white"/>
<path opacity="0.1" d="M208.038 275.045L207.015 279.399C207.015 279.399 198.827 275.22 197.351 269.909C195.874 264.599 199.821 262.583 199.821 262.583L207.451 265.816L208.038 275.045Z" fill="black"/>
<path d="M162.086 423.235C162.086 423.235 154.514 426.018 149.308 426.368C146.544 426.553 145.091 424.858 144.343 423.226C143.934 422.318 143.671 421.352 143.562 420.362L144.239 412.861L144.598 408.866L155.659 405.993L157.226 410.783L157.372 411.147C158.002 412.747 160.524 419.255 160.449 420.613C160.446 420.961 160.513 421.306 160.646 421.627C160.779 421.948 160.976 422.239 161.225 422.482C161.479 422.769 161.768 423.022 162.086 423.235Z" fill="white"/>
<path d="M213.812 419.421C213.831 419.649 213.808 419.878 213.745 420.098C213.745 420.098 197.55 422.8 194.237 420.098C193.302 419.308 192.214 418.723 191.04 418.379C189.866 418.035 188.634 417.94 187.421 418.101C187.421 418.101 181.155 418.271 180.109 416.208C179.674 415.341 179.787 413.661 180.057 412.005C180.332 410.453 180.699 408.918 181.155 407.409L181.406 407.21L182.897 406.013L200.351 405.497H200.484C200.399 409.066 206.409 413.16 206.409 413.16C212.794 415.526 213.736 418.2 213.812 419.421Z" fill="white"/>
<path opacity="0.1" d="M213.812 419.42C213.828 419.648 213.804 419.877 213.741 420.097C213.741 420.097 197.55 422.8 194.237 420.097C193.303 419.308 192.215 418.723 191.042 418.379C189.869 418.035 188.638 417.94 187.426 418.1C187.426 418.1 181.155 418.27 180.114 416.207C179.678 415.336 179.787 413.66 180.057 412.004C182.471 412.245 186.281 412.846 187.776 414.28C190.039 416.462 193.872 418.639 196.224 418.81C198.066 418.928 209.079 419.278 213.812 419.42Z" fill="black"/>
<path opacity="0.1" d="M162.086 423.236C162.086 423.236 154.514 426.019 149.307 426.369C146.543 426.553 145.091 424.859 144.347 423.222C146.274 423.87 148.948 424.551 150.353 423.927C152.019 423.188 157.926 422.71 161.239 422.507C161.491 422.783 161.776 423.028 162.086 423.236Z" fill="black"/>
<path d="M173.322 198.968C167.075 196.54 159.038 188.518 161.045 184.77C161.491 183.824 161.756 182.803 161.826 181.76C161.955 180.344 161.974 178.919 161.883 177.5C161.742 175.176 161.462 172.862 161.045 170.571C161.045 170.571 180.549 171.011 179.413 173.884C179.082 174.727 179.03 176.189 179.12 177.827C179.21 179.464 179.446 181.315 179.692 182.881C180.033 185.03 180.374 186.668 180.374 186.668C180.374 186.668 179.181 188.338 178.481 188.428C177.78 188.518 182.286 202.428 173.322 198.968Z" fill="#A18086"/>
<path opacity="0.1" d="M157.358 411.147L157.211 411.308C151.38 404.256 144.329 413.045 144.329 413.045L144.224 412.861L144.584 408.866L155.645 405.993L157.211 410.783L157.358 411.147Z" fill="black"/>
<path opacity="0.1" d="M200.489 405.993C200.489 405.993 196.229 405.903 193.957 407.91C191.686 409.917 180.705 408.346 181.179 407.91C181.319 407.694 181.403 407.447 181.425 407.191L182.916 405.993L200.37 405.478C200.437 405.795 200.489 405.993 200.489 405.993Z" fill="black"/>
<path d="M164.614 350.614C164.296 351.398 164.055 352.211 163.894 353.042C163.5 355.316 163.39 357.631 163.568 359.933C163.743 363.246 163.568 385.448 163.568 385.448C163.568 385.448 159.824 391.369 157.737 393.456C155.65 395.543 161.996 399.291 161.996 399.291C162.943 404.687 157.207 410.783 157.207 410.783C151.376 403.731 144.324 412.525 144.324 412.525C144.324 412.525 140.49 405.899 139.534 403.532C138.578 401.166 143.278 399.528 144.93 398.567C146.581 397.607 144.849 391.941 144.849 391.941C144.849 391.941 143.453 386.977 141.796 382.447C140.14 377.918 143.623 355.371 143.623 355.371C143.623 355.371 143.803 351.367 144.234 349.97C144.451 348.963 144.494 347.926 144.362 346.903C144.333 346.558 144.3 346.269 144.276 346.075C144.253 345.881 144.234 345.791 144.234 345.791L144.3 345.678L146.667 341.267C146.667 341.267 165.749 347.836 164.614 350.614Z" fill="#6370FF"/>
<path d="M200.489 405.473C200.489 405.473 196.229 405.383 193.957 407.366C191.686 409.349 180.705 407.801 181.179 407.366C181.652 406.93 181.614 403.707 181.614 403.707C175.173 394.914 180.667 391.345 180.667 391.345C180.667 391.345 177.79 377.502 177.269 372.366C176.905 368.779 176.455 359.138 176.214 353.634C176.11 351.267 176.048 349.639 176.048 349.639L181.311 348.579L181.988 348.442L194.681 345.896C194.681 345.896 195.032 348.262 195.268 350.198C195.386 351.024 195.453 351.857 195.467 352.692C195.382 353.638 195.467 356.601 195.467 356.601L195.898 365.485C195.616 366.417 195.471 367.384 195.467 368.358C195.552 369.489 197.204 385.685 197.204 385.685C197.204 385.685 200.077 395.349 199.097 396.045C198.117 396.741 200.489 405.473 200.489 405.473Z" fill="#6370FF"/>
<path opacity="0.1" d="M179.413 173.884C179.082 174.727 179.03 176.189 179.12 177.827C176.507 179.4 173.504 180.204 170.455 180.147C167.406 180.09 164.435 179.175 161.883 177.505C161.742 175.179 161.463 172.864 161.045 170.571C161.045 170.571 180.549 171.002 179.413 173.884Z" fill="black"/>
<path d="M186.953 163.426C186.956 165.131 186.688 166.826 186.158 168.447C184.972 172.079 182.54 175.175 179.293 177.187C176.045 179.2 172.191 180 168.411 179.445C164.631 178.891 161.169 177.018 158.636 174.157C156.103 171.297 154.663 167.633 154.57 163.814C154.57 163.681 154.57 163.558 154.57 163.426C154.534 161.276 154.925 159.14 155.723 157.143C156.52 155.147 157.707 153.328 159.214 151.795C160.722 150.262 162.519 149.044 164.502 148.213C166.485 147.381 168.614 146.953 170.764 146.953C172.914 146.953 175.043 147.381 177.026 148.213C179.009 149.044 180.806 150.262 182.314 151.795C183.821 153.328 185.008 155.147 185.805 157.143C186.602 159.14 186.994 161.276 186.957 163.426H186.953Z" fill="#A18086"/>
<path opacity="0.1" d="M173.322 198.968C167.075 196.54 159.038 188.518 161.045 184.77C161.491 183.824 161.756 182.803 161.826 181.76L170.378 188.788L175.67 193.128L179.692 182.886C180.033 185.035 180.374 186.672 180.374 186.672C180.374 186.672 179.181 188.343 178.481 188.433C177.78 188.523 182.286 202.428 173.322 198.968Z" fill="black"/>
<path d="M195.439 230.031L188.297 350.009L178.983 350.619L154.864 281.051L158.821 198.458L159.654 181.008L170.378 189.816L175.674 194.156L179.816 183.616L187.516 190.327L195.439 230.031Z" fill="#6370FF"/>
<path opacity="0.1" d="M164.614 350.614C164.296 351.399 164.055 352.212 163.894 353.042C157.117 351.996 150.534 349.939 144.366 346.942L144.239 346.875L144.281 346.113L144.305 345.716L146.671 341.305C146.671 341.305 165.749 347.836 164.614 350.614Z" fill="black"/>
<path opacity="0.1" d="M181.42 353.062C179.688 353.357 177.94 353.556 176.185 353.659C176.081 351.292 176.02 349.664 176.02 349.664L181.283 348.604L181.42 353.062Z" fill="black"/>
<path opacity="0.1" d="M195.24 350.222C191.875 351.098 186.678 352.082 182.026 351.467L181.96 348.466L194.653 345.92C194.653 345.92 195.003 348.263 195.24 350.222Z" fill="black"/>
<path opacity="0.1" d="M181.941 352.016C162.536 355.329 144.764 345.83 144.764 345.83L144.934 342.612C144.934 342.612 145.374 306.126 144.153 303.329C142.932 300.532 141.981 286.347 142.672 284.17C143.363 281.993 140.149 249.346 140.149 249.346L139.629 236.094L120.574 228.375L129.093 210.617C130.244 208.127 131.234 205.566 132.056 202.95C133.538 198.34 140.414 193.811 140.414 193.811C140.414 193.811 147.466 189.286 150.254 189.456C153.042 189.627 156.695 185.452 156.695 185.452C159.393 178.576 161.835 181.69 161.835 181.69C161.835 182.016 161.835 181.69 161.703 182.707C160.756 190.256 177.009 214.11 177.241 214.531L178.788 252.233L180.355 299.945L181.941 352.016Z" fill="black"/>
<path d="M181.42 352.015C162.015 355.328 144.239 345.829 144.239 345.829L144.414 342.611C144.414 342.611 144.854 306.125 143.628 303.328C142.402 300.531 141.456 286.347 142.151 284.169C142.847 281.992 139.629 249.345 139.629 249.345L139.103 236.093L120.04 228.345L128.559 210.588C129.707 208.097 130.696 205.536 131.521 202.92C132.998 198.311 139.88 193.781 139.88 193.781C139.88 193.781 146.932 189.257 149.715 189.427C152.497 189.597 156.156 185.423 156.156 185.423C158.858 178.546 161.835 181.66 161.835 181.66C161.835 181.987 161.551 182.134 161.703 182.678C163.785 190 176.488 214.081 176.72 214.502L178.287 252.204L179.853 299.916L181.42 352.015Z" fill="white"/>
<path opacity="0.1" d="M176.19 215.577C174.103 214.706 163.047 202.083 163.047 202.083V199.21C162.645 198.264 160.255 198.841 158.314 199.504L159.147 182.054L160.094 182.839C162.167 190.156 175.949 215.155 176.19 215.577Z" fill="black"/>
<path d="M176.715 214.531C174.624 213.66 163.568 201.037 163.568 201.037V198.164C163.165 197.218 160.775 197.795 158.835 198.458L159.672 181.008L160.619 181.793C162.697 189.11 176.484 214.114 176.715 214.531Z" fill="white"/>
<path opacity="0.1" d="M144.764 277.482C145.024 277.482 158.257 276.091 158.257 276.091C158.257 276.091 166.27 291.847 165.745 295.68C165.219 299.514 164.268 302.907 161.045 302.306C157.822 301.705 143.699 302.779 143.699 302.779L144.764 277.482Z" fill="black"/>
<path d="M144.239 276.436C144.499 276.436 157.732 275.045 157.732 275.045C157.732 275.045 165.74 290.805 165.219 294.634C164.699 298.463 163.738 301.861 160.52 301.26C157.301 300.659 143.174 301.734 143.174 301.734L144.239 276.436Z" fill="white"/>
<path d="M154.211 269.039C154.211 269.039 166.355 275.566 166.616 277.558C166.876 279.551 160.434 276.687 159.043 276.342C158.127 276.121 157.195 275.976 156.255 275.906L146.974 276.157L154.211 269.039Z" fill="#A18086"/>
<path opacity="0.1" d="M172.802 216.391C173.507 216.391 174.08 215.819 174.08 215.113C174.08 214.407 173.507 213.835 172.802 213.835C172.096 213.835 171.524 214.407 171.524 215.113C171.524 215.819 172.096 216.391 172.802 216.391Z" fill="black"/>
<path d="M172.802 215.87C173.507 215.87 174.08 215.298 174.08 214.592C174.08 213.887 173.507 213.314 172.802 213.314C172.096 213.314 171.524 213.887 171.524 214.592C171.524 215.298 172.096 215.87 172.802 215.87Z" fill="#3F3D56"/>
<path opacity="0.1" d="M175.154 271.708C175.86 271.708 176.432 271.136 176.432 270.43C176.432 269.725 175.86 269.152 175.154 269.152C174.448 269.152 173.876 269.725 173.876 270.43C173.876 271.136 174.448 271.708 175.154 271.708Z" fill="black"/>
<path d="M175.154 271.183C175.86 271.183 176.432 270.611 176.432 269.905C176.432 269.199 175.86 268.627 175.154 268.627C174.448 268.627 173.876 269.199 173.876 269.905C173.876 270.611 174.448 271.183 175.154 271.183Z" fill="#3F3D56"/>
<path opacity="0.1" d="M174.075 244.05C174.781 244.05 175.353 243.478 175.353 242.772C175.353 242.066 174.781 241.494 174.075 241.494C173.369 241.494 172.797 242.066 172.797 242.772C172.797 243.478 173.369 244.05 174.075 244.05Z" fill="black"/>
<path d="M174.075 243.529C174.781 243.529 175.353 242.956 175.353 242.251C175.353 241.545 174.781 240.973 174.075 240.973C173.369 240.973 172.797 241.545 172.797 242.251C172.797 242.956 173.369 243.529 174.075 243.529Z" fill="#3F3D56"/>
<path d="M203.532 275.642C203.532 275.642 204.403 276.948 203.532 277.558C202.661 278.169 203.617 279.646 203.617 279.646C203.617 279.646 201.445 280.919 202.401 282.064C203.357 283.209 202.751 288.382 202.751 288.382L200.138 292.708C200.138 292.708 200.295 295.496 200.304 299.263C200.304 305.141 199.959 313.405 198.047 317.172L198.312 348.083C198.312 348.083 189.163 351.424 181.505 350.407L180.369 300.806C180.369 300.806 182.026 272.679 182.636 267.283C182.994 264.482 183.139 261.658 183.072 258.835C183.072 258.835 182.811 250.392 181.936 246.473C181.936 246.473 180.989 229.496 180.895 224.796C180.852 222.548 180.97 215.989 181.103 209.751C181.25 202.931 181.415 196.499 181.415 196.499L179.688 182.83C179.688 182.83 181.415 182.655 181.936 183.351C182.169 183.569 182.423 183.764 182.693 183.933C185.675 185.949 196.21 192.149 196.21 192.149C196.21 192.149 202.041 194.468 203.437 197.791C204.833 201.113 205.804 203.47 206.48 204.417C207.157 205.363 207.526 209.812 207.526 209.812C207.526 209.812 209.533 218 211.1 219.387C212.666 220.774 213.812 229.596 213.812 229.596L199.968 240.481C199.968 240.481 198.752 258.589 198.491 259.29C198.231 259.99 203.532 275.642 203.532 275.642Z" fill="white"/>
<path d="M204.057 275.641C204.057 275.641 204.923 276.947 204.057 277.558C203.191 278.168 204.138 279.645 204.138 279.645C204.138 279.645 201.98 280.932 202.926 282.078C203.873 283.223 203.276 288.396 203.276 288.396L200.664 292.722C200.664 292.722 200.82 295.509 200.834 299.277C200.834 305.155 200.489 313.419 198.577 317.186L198.837 348.096C198.837 348.096 189.674 351.438 182.026 350.42L180.895 300.82C180.895 300.82 182.551 272.692 183.162 267.297C183.519 264.496 183.663 261.672 183.592 258.849C183.592 258.849 183.332 250.405 182.461 246.487C182.461 246.487 181.515 229.51 181.415 224.81C181.373 222.562 181.496 216.002 181.623 209.764C181.77 202.944 181.936 196.512 181.936 196.512L179.655 182.659C179.655 182.659 181.936 182.659 182.461 183.364C182.692 183.585 182.946 183.78 183.218 183.947C186.2 185.963 196.74 192.163 196.74 192.163C196.74 192.163 202.566 194.482 203.963 197.804C205.359 201.127 206.329 203.484 207.011 204.43C207.692 205.377 208.052 209.826 208.052 209.826C208.052 209.826 210.059 218.014 211.625 219.4C213.192 220.787 214.323 229.59 214.323 229.59L200.479 240.476C200.479 240.476 199.263 258.584 198.998 259.284C198.733 259.985 204.057 275.641 204.057 275.641Z" fill="white"/>
<path opacity="0.1" d="M187.478 200.531L188.727 204.175L182.149 210.801C182.296 203.986 182.461 197.549 182.461 197.549L180.18 183.696C180.18 183.696 182.461 183.696 182.987 184.401C183.217 184.621 183.471 184.815 183.744 184.979L189.338 201.118L187.478 200.531Z" fill="black"/>
<path d="M186.953 199.485L188.207 203.129L181.628 209.755C181.775 202.935 181.941 196.503 181.941 196.503L179.655 182.65C179.655 182.65 181.941 182.65 182.461 183.356C182.693 183.575 182.947 183.77 183.218 183.938L188.817 200.072L186.953 199.485Z" fill="white"/>
<path opacity="0.1" d="M186.953 163.426C186.956 165.131 186.688 166.826 186.158 168.447C186.068 168.461 185.977 168.457 185.889 168.435C185.801 168.413 185.719 168.374 185.646 168.32C185.523 164.06 183.427 160.061 180.847 156.658C180.123 155.63 179.245 154.721 178.244 153.96C177.232 153.2 175.974 152.844 174.713 152.961C173.294 153.156 172.039 154.121 170.605 154.244C168.712 154.4 167.018 153.089 165.139 153.023C164.375 153.03 163.622 153.2 162.929 153.522C162.236 153.843 161.619 154.309 161.121 154.888C160.134 156.055 159.4 157.416 158.967 158.882C158.223 161.106 157.818 163.429 157.765 165.773C157.741 167.099 157.614 168.76 156.383 169.243C156.476 168.268 156.365 167.285 156.058 166.355C155.751 165.426 155.254 164.57 154.599 163.842L154.57 163.814C154.57 163.681 154.57 163.558 154.57 163.426C154.534 161.276 154.925 159.14 155.723 157.143C156.52 155.147 157.707 153.328 159.214 151.795C160.722 150.262 162.519 149.044 164.502 148.213C166.485 147.381 168.614 146.953 170.764 146.953C172.914 146.953 175.043 147.381 177.026 148.213C179.009 149.044 180.806 150.262 182.314 151.795C183.821 153.328 185.008 155.147 185.805 157.143C186.602 159.14 186.994 161.276 186.957 163.426H186.953Z" fill="black"/>
<path d="M177.468 137.712C175.009 136.555 172.211 136.336 169.602 137.097C168.291 137.485 167.056 138.114 165.726 138.431C162.886 139.118 159.573 138.375 157.136 140.036C155.782 140.982 154.968 142.478 154.211 143.931L152.318 147.537C151.286 149.511 150.245 151.518 149.814 153.69C149.383 155.862 149.644 158.295 151.021 160.042C152.024 161.315 153.506 162.115 154.594 163.312C155.246 164.04 155.741 164.896 156.047 165.824C156.353 166.752 156.465 167.734 156.374 168.707C157.609 168.234 157.727 166.568 157.756 165.243C157.808 162.899 158.214 160.576 158.958 158.352C159.39 156.885 160.123 155.525 161.111 154.357C161.61 153.779 162.227 153.314 162.92 152.992C163.612 152.671 164.366 152.501 165.13 152.493C167.023 152.559 168.722 153.865 170.596 153.709C172.016 153.591 173.275 152.62 174.704 152.431C175.964 152.312 177.224 152.668 178.235 153.43C179.235 154.189 180.112 155.099 180.833 156.128C183.417 159.53 185.514 163.52 185.637 167.789C186.172 168.182 186.943 167.671 187.208 167.065C187.473 166.459 187.483 165.749 187.819 165.172C188.207 164.505 188.95 164.15 189.532 163.648C191.009 162.375 191.378 160.231 191.321 158.286C191.264 156.34 190.886 154.367 191.255 152.455C191.477 151.281 191.979 150.183 192.254 149.023C192.528 147.864 192.561 146.562 191.913 145.564C190.966 144.097 188.974 143.808 187.237 143.671C185.263 143.5 183.498 143.718 182.239 142.057C181.648 141.19 180.983 140.376 180.251 139.624C180 139.378 177.468 137.816 177.468 137.712Z" fill="#512E4E"/>
<path opacity="0.1" d="M126.027 237.518L121.081 228.374L119.514 242.483C119.514 242.483 120.385 248.749 120.21 249.71C120.035 250.671 123.778 259.284 123.778 259.284C123.778 259.284 136.145 281.311 141.195 282.447L158.257 270.255L153.733 264.509C153.733 264.509 152.166 263.899 151.773 264.509C151.773 264.509 143.372 250.055 142.502 249.009C141.631 247.963 141.801 245.876 141.801 245.876C141.801 245.876 140.495 244.485 140.93 243.178C141.366 241.872 138.408 237.343 138.408 237.343L141.105 234.82L126.027 237.518Z" fill="black"/>
<path d="M121.341 227.333L120.035 228.374L118.468 242.483C118.468 242.483 119.339 248.749 119.164 249.71C118.989 250.671 122.737 259.285 122.737 259.285C122.737 259.285 135.099 281.311 140.149 282.447L157.216 270.255L152.687 264.51C152.687 264.51 151.12 263.899 150.727 264.51C150.727 264.51 142.327 250.055 141.456 249.01C140.585 247.964 140.76 245.876 140.76 245.876C140.76 245.876 139.454 244.485 139.889 243.179C140.325 241.872 137.362 237.343 137.362 237.343L140.06 234.82L121.341 227.333Z" fill="white"/>
<path opacity="0.1" d="M202.401 282.603C203.347 283.753 202.751 288.917 202.751 288.917L200.138 293.243C200.138 293.243 200.295 296.035 200.304 299.798L195.912 301.17C195.515 301.294 195.094 301.321 194.685 301.25C194.275 301.178 193.889 301.009 193.557 300.758C193.226 300.506 192.96 300.179 192.781 299.804C192.602 299.428 192.515 299.016 192.528 298.6L193.285 274.174L203.532 278.093C202.661 278.698 203.617 280.185 203.617 280.185C203.617 280.185 201.445 281.453 202.401 282.603Z" fill="black"/>
<path d="M202.926 282.078C203.873 283.228 203.276 288.396 203.276 288.396L200.664 292.722C200.664 292.722 200.82 295.51 200.834 299.277L196.362 300.673C195.973 300.794 195.561 300.82 195.16 300.75C194.759 300.679 194.381 300.514 194.057 300.267C193.733 300.021 193.472 299.701 193.297 299.334C193.121 298.966 193.036 298.562 193.049 298.155L193.811 273.653L204.062 277.572C203.186 278.178 204.142 279.659 204.142 279.659C204.142 279.659 201.979 280.932 202.926 282.078Z" fill="white"/>
<path d="M206.32 270.435C206.32 270.435 205.624 274.879 203.882 275.139C202.14 275.4 201.36 282.329 199.623 282.083C197.886 281.836 199.036 275.641 199.097 274.439C199.159 273.237 197.204 268.258 198.667 267.127C200.129 265.996 204.758 267.127 204.758 267.127L206.32 270.435Z" fill="#A18086"/>
<path opacity="0.1" d="M210.025 236.212L213.31 229.586C213.31 229.586 214.616 234.636 214.616 237.334C214.616 240.031 216.443 240.296 216.443 240.296C216.443 240.296 218.445 242.663 217.39 244.386C216.334 246.108 215.908 250.396 215.908 250.396C215.908 250.396 216.254 258.579 214.687 259.711C213.121 260.842 212.794 263.544 212.794 263.544C212.794 263.544 209.917 268.679 210.006 269.9C210.096 271.122 206.002 279.39 206.002 279.39C206.002 279.39 208.004 269.115 196.338 264.675C196.338 264.675 196.248 261.187 197.119 260.231C197.99 259.275 199.348 258.84 198.496 254.007C197.644 249.175 198.25 243.401 198.25 242.242C198.25 241.082 200.863 233.85 200.863 233.85L210.025 236.212Z" fill="black"/>
<path d="M211.445 228.639L214.313 229.585C214.313 229.585 215.624 234.635 215.624 237.333C215.624 240.031 217.451 240.296 217.451 240.296C217.451 240.296 219.453 242.662 218.398 244.385C217.342 246.108 216.921 250.396 216.921 250.396C216.921 250.396 217.267 258.579 215.7 259.71C214.133 260.841 213.783 263.544 213.783 263.544C213.783 263.544 210.91 268.679 211 269.9C211.09 271.121 206.992 279.389 206.992 279.389C206.992 279.389 208.998 269.114 197.327 264.675C197.327 264.675 197.242 261.187 198.113 260.231C198.984 259.274 200.342 258.839 199.49 254.007C198.638 249.175 199.244 243.4 199.244 242.241C199.244 241.081 201.856 233.85 201.856 233.85L211.445 228.639Z" fill="white"/>
<path opacity="0.1" d="M148.096 400.381C148.096 400.381 152.668 397.508 155.669 399.595C158.67 401.683 148.096 400.381 148.096 400.381Z" fill="black"/>
<path opacity="0.1" d="M183.621 391.497C183.621 391.497 187.668 390.977 191.066 394.635C194.465 398.294 183.621 391.497 183.621 391.497Z" fill="black"/>
<g opacity="0.1">
<path opacity="0.1" d="M189.542 162.611C188.96 163.112 188.212 163.472 187.824 164.139C187.493 164.712 187.483 165.417 187.218 166.032C186.953 166.648 186.182 167.149 185.647 166.761C185.524 162.502 183.423 158.503 180.843 155.095C180.122 154.066 179.246 153.156 178.245 152.397C177.232 151.636 175.971 151.279 174.71 151.398C173.29 151.593 172.04 152.558 170.606 152.676C168.713 152.837 167.014 151.526 165.135 151.46C164.371 151.468 163.618 151.638 162.926 151.961C162.234 152.283 161.619 152.75 161.121 153.329C160.133 154.495 159.4 155.854 158.968 157.319C158.224 159.543 157.819 161.866 157.766 164.21C157.737 165.531 157.614 167.178 156.393 167.67C156.422 168.02 156.422 168.371 156.393 168.721C157.624 168.247 157.747 166.581 157.775 165.256C157.828 162.912 158.233 160.589 158.977 158.365C159.409 156.898 160.143 155.538 161.131 154.371C161.629 153.793 162.245 153.327 162.937 153.006C163.629 152.684 164.381 152.514 165.144 152.506C167.038 152.572 168.741 153.879 170.616 153.722C172.035 153.604 173.294 152.634 174.719 152.444C175.981 152.325 177.241 152.681 178.254 153.443C179.255 154.202 180.132 155.112 180.853 156.141C183.432 159.544 185.534 163.534 185.657 167.803C186.191 168.195 186.963 167.684 187.228 167.078C187.493 166.473 187.502 165.763 187.834 165.185C188.222 164.518 188.97 164.163 189.552 163.661C191.028 162.388 191.398 160.244 191.341 158.299C191.341 158.237 191.341 158.176 191.341 158.119C191.251 159.804 190.801 161.522 189.542 162.611Z" fill="black"/>
<path opacity="0.1" d="M154.604 162.275C153.515 161.077 152.029 160.277 151.03 159.009C150.189 157.886 149.709 156.535 149.653 155.133C149.504 156.884 149.993 158.631 151.03 160.05C152.029 161.323 153.515 162.123 154.604 163.321C155.649 164.492 156.276 165.977 156.388 167.542C156.46 166.589 156.34 165.632 156.033 164.727C155.726 163.821 155.24 162.987 154.604 162.275Z" fill="black"/>
<path opacity="0.1" d="M192.263 147.986C191.984 149.146 191.487 150.249 191.26 151.418C191.125 152.199 191.076 152.992 191.113 153.784C191.129 153.333 191.178 152.884 191.26 152.44C191.487 151.266 191.984 150.168 192.263 149.008C192.426 148.369 192.479 147.706 192.419 147.049C192.39 147.365 192.338 147.678 192.263 147.986Z" fill="black"/>
</g>
<defs>
<linearGradient id="paint0_linear" x1="105645" y1="219796" x2="105645" y2="70304.3" gradientUnits="userSpaceOnUse">
<stop stop-color="#808080" stop-opacity="0.25"/>
<stop offset="0.54" stop-color="#808080" stop-opacity="0.12"/>
<stop offset="1" stop-color="#808080" stop-opacity="0.1"/>
</linearGradient>
<linearGradient id="paint1_linear" x1="168.646" y1="426.383" x2="168.646" y2="135.151" gradientUnits="userSpaceOnUse">
<stop stop-color="#808080" stop-opacity="0.25"/>
<stop offset="0.54" stop-color="#808080" stop-opacity="0.12"/>
<stop offset="1" stop-color="#808080" stop-opacity="0.1"/>
</linearGradient>
<clipPath id="clip0">
<rect width="523" height="370.46" fill="white"/>
</clipPath>
</defs>
</svg>
