<svg width="56" height="56" viewBox="0 0 56 56" fill="none" xmlns="http://www.w3.org/2000/svg">
<mask id="path-1-inside-1" fill="white">
<path fill-rule="evenodd" clip-rule="evenodd" d="M38.9119 26C39.6105 24.4779 40 22.7844 40 21C40 14.3726 34.6274 9 28 9C21.3726 9 16 14.3726 16 21C16 22.7844 16.3895 24.4779 17.0881 26H17.082L17.1395 26.1106C17.2722 26.3921 17.4156 26.6676 17.569 26.9367L28 47L38.3769 27.0304C38.5697 26.6994 38.7472 26.3583 38.9082 26.0081L38.9124 26H38.9119Z"/>
</mask>
<path d="M38.9119 26L37.0942 25.1657L35.7934 28H38.9119V26ZM17.0881 26V28H20.2066L18.9058 25.1657L17.0881 26ZM17.082 26V24H13.7881L15.3075 26.9226L17.082 26ZM17.1395 26.1106L18.9486 25.2578L18.932 25.2226L18.914 25.188L17.1395 26.1106ZM17.569 26.9367L19.3435 26.0141L19.3256 25.9796L19.3063 25.9458L17.569 26.9367ZM28 47L26.2255 47.9226L28.0005 51.3366L29.7747 47.9222L28 47ZM38.3769 27.0304L36.6487 26.0239L36.6244 26.0655L36.6022 26.1082L38.3769 27.0304ZM38.9082 26.0081L37.1336 25.0857L37.1113 25.1286L37.0911 25.1725L38.9082 26.0081ZM38.9124 26L40.687 26.9223L42.2059 24H38.9124V26ZM38 21C38 22.4907 37.6751 23.9001 37.0942 25.1657L40.7296 26.8343C41.5459 25.0557 42 23.0782 42 21H38ZM28 11C33.5228 11 38 15.4772 38 21H42C42 13.268 35.732 7 28 7V11ZM18 21C18 15.4772 22.4772 11 28 11V7C20.268 7 14 13.268 14 21H18ZM18.9058 25.1657C18.3249 23.9001 18 22.4907 18 21H14C14 23.0782 14.4541 25.0557 15.2704 26.8343L18.9058 25.1657ZM17.082 28H17.0881V24H17.082V28ZM18.914 25.188L18.8565 25.0774L15.3075 26.9226L15.365 27.0331L18.914 25.188ZM19.3063 25.9458C19.1785 25.7217 19.0591 25.4922 18.9486 25.2578L15.3304 26.9634C15.4854 27.292 15.6527 27.6136 15.8317 27.9276L19.3063 25.9458ZM29.7745 46.0774L19.3435 26.0141L15.7945 27.8592L26.2255 47.9226L29.7745 46.0774ZM36.6022 26.1082L26.2253 46.0778L29.7747 47.9222L40.1516 27.9526L36.6022 26.1082ZM37.0911 25.1725C36.9571 25.464 36.8093 25.7481 36.6487 26.0239L40.1052 28.037C40.3302 27.6507 40.5373 27.2525 40.7253 26.8437L37.0911 25.1725ZM37.1378 25.0777L37.1336 25.0857L40.6828 26.9304L40.687 26.9223L37.1378 25.0777ZM38.9119 28H38.9124V24H38.9119V28Z" fill="#201B71" mask="url(#path-1-inside-1)"/>
<circle cx="28" cy="21" r="5" stroke="#201B71" stroke-width="2"/>
</svg>
