<svg width="24" height="24" viewBox="0 0 24 24" fill="none" xmlns="http://www.w3.org/2000/svg">
<path d="M13.8316 14.9341C14.0795 14.6872 14.0795 14.6872 14.3772 14.3909C14.6534 14.116 14.8707 13.9001 15.0092 13.7628C15.6993 13.0788 16.6212 13.0787 17.3127 13.7638C17.9554 14.4007 18.6064 15.0514 19.2688 15.7187C19.9684 16.4237 19.9639 17.3462 19.2615 18.055C19.1225 18.1953 18.8948 18.3622 18.5853 18.5615C18.5162 18.6059 18.4437 18.6516 18.368 18.6983C18.1642 18.824 17.9467 18.9518 17.7293 19.0753C17.5989 19.1494 17.4972 19.2058 17.447 19.2329C16.6518 19.6916 15.36 19.7909 14.5314 19.4708C14.4483 19.4454 14.2996 19.3949 14.0946 19.3171C13.7572 19.1889 13.3824 19.0291 12.9794 18.8355C11.8299 18.2833 10.6808 17.5697 9.6071 16.6765C9.17592 16.3178 8.76489 15.936 8.37692 15.5304C8.06391 15.2032 7.76641 14.8622 7.48401 14.509C6.55422 13.346 5.82413 12.1014 5.27049 10.8564C5.07641 10.42 4.91807 10.0141 4.79267 9.64881C4.71654 9.42705 4.66785 9.26624 4.65437 9.20989C4.34252 8.35112 4.5193 7.05845 5.03919 6.29775C5.07168 6.24747 5.12862 6.16121 5.20358 6.05081C5.32848 5.86685 5.45831 5.68278 5.58692 5.51008C5.64272 5.43516 5.69723 5.36383 5.75021 5.2966C5.88612 5.12417 6.00948 4.98164 6.12023 4.87268C6.81151 4.19282 7.73178 4.19377 8.42432 4.87382C8.70661 5.15084 9.926 6.37108 10.3671 6.816C11.081 7.53657 11.0826 8.44736 10.3696 9.16386C10.2627 9.27137 10.0304 9.50416 9.7099 9.825C9.43771 10.0975 9.43771 10.0975 9.21154 10.3238C9.09484 10.4406 9.05341 10.482 9.02656 10.5089C9.07195 10.6242 9.1472 10.8023 9.24978 11.0241C9.44833 11.4533 9.67585 11.8823 9.92753 12.2806C10.2018 12.7146 10.4879 13.0844 10.7802 13.3693C11.05 13.6323 11.3719 13.887 11.7348 14.1306C12.1584 14.415 12.6145 14.6695 13.0707 14.8895C13.3071 15.0035 13.4968 15.0865 13.626 15.1388C13.6554 15.1096 13.6995 15.0656 13.8316 14.9341ZM9.00717 10.4587C9.00775 10.4602 9.00834 10.4618 9.00893 10.4634C9.00846 10.4619 9.00783 10.4603 9.00717 10.4587ZM18.6975 16.2856C18.0367 15.6199 17.3873 14.9708 16.7462 14.3355C16.3685 13.9612 15.9522 13.9613 15.5757 14.3344C15.4376 14.4713 15.2207 14.6869 14.9465 14.9597C14.6473 15.2575 14.6473 15.2575 14.3995 15.5043C14.2013 15.7017 14.2013 15.7017 14.1517 15.7511C13.9546 15.9475 13.6254 16.0105 13.3801 15.907C13.2448 15.8546 13.0147 15.756 12.7211 15.6144C12.2328 15.3789 11.7443 15.1063 11.2863 14.7988C10.8852 14.5296 10.5258 14.2453 10.2183 13.9455C9.87606 13.6118 9.55266 13.1939 9.24721 12.7105C8.97507 12.2799 8.7316 11.8208 8.51935 11.3619C8.39177 11.0861 8.30231 10.8701 8.25737 10.751C8.15528 10.4968 8.22421 10.1732 8.41616 9.98117C8.46138 9.93594 8.46138 9.93594 8.64228 9.75493C8.8684 9.52864 8.8684 9.52864 9.13974 9.25703C9.46054 8.93586 9.69269 8.70325 9.79913 8.59624C10.1995 8.19391 10.1988 7.78955 9.79551 7.38251C9.35694 6.94017 8.13958 5.72196 7.86055 5.44813C7.48079 5.07522 7.06246 5.07479 6.6846 5.44641C6.60198 5.52769 6.49904 5.64662 6.38229 5.79476C6.33407 5.85595 6.28397 5.9215 6.23237 5.99078C6.1115 6.15308 5.98819 6.32792 5.8694 6.50288C5.79814 6.60782 5.74451 6.68906 5.70942 6.74312C5.32825 7.30103 5.1885 8.32295 5.42135 8.96864C5.44066 9.04088 5.48395 9.18389 5.55385 9.38748C5.67182 9.73112 5.82164 10.1152 6.00585 10.5294C6.53304 11.715 7.22873 12.9009 8.11259 14.0065C8.38034 14.3413 8.66219 14.6643 8.95849 14.9741C9.32494 15.3572 9.71364 15.7183 10.1218 16.0578C11.1412 16.9059 12.2347 17.585 13.3278 18.1101C13.7097 18.2935 14.0637 18.4444 14.3805 18.5647C14.568 18.636 14.6996 18.6807 14.7933 18.7103C15.4227 18.9527 16.4604 18.8729 17.0538 18.5308C17.1086 18.501 17.2061 18.447 17.3318 18.3755C17.5414 18.2565 17.7508 18.1334 17.9454 18.0133C18.0169 17.9693 18.0851 17.9263 18.1496 17.8848C18.4121 17.7158 18.6041 17.5751 18.6899 17.4886C19.0826 17.0923 19.0846 16.6756 18.6975 16.2856Z" fill="#201B71"/>
</svg>
