<svg width="40" height="40" viewBox="0 0 40 40" fill="none" xmlns="http://www.w3.org/2000/svg">
<path d="M19.9993 7.35938C23.4895 7.35938 26.6493 8.774 28.9368 11.0615C31.2237 13.3484 32.6383 16.5088 32.6383 19.9991C32.6383 23.4887 31.2237 26.6491 28.9368 28.936C26.6493 31.2235 23.4895 32.6382 19.9993 32.6382C16.509 32.6382 13.3492 31.2235 11.0617 28.936C8.77419 26.6491 7.35956 23.4887 7.35956 19.9991C7.35956 16.5088 8.77419 13.3484 11.0617 11.0615C13.3492 8.774 16.509 7.35938 19.9993 7.35938V7.35938ZM21.8643 8.60191C22.3209 9.2617 22.7229 10.1625 23.054 11.2522C23.2261 11.817 23.3814 12.4345 23.5175 13.0974H26.3983C26.1417 12.5793 25.8572 12.0922 25.5484 11.6424C24.5426 10.1799 23.2758 9.10949 21.8643 8.60191ZM23.6884 14.0101C23.9685 15.6626 24.1363 17.5438 24.1587 19.5424H27.9136C27.8614 17.5258 27.4644 15.6409 26.8065 14.0101H23.6884ZM24.1587 20.4551C24.1363 22.4537 23.9685 24.3349 23.6884 25.9875H26.8065C27.4644 24.3567 27.8614 22.4717 27.9136 20.4551H24.1587ZM23.5175 26.9001C23.3814 27.563 23.2261 28.1806 23.054 28.7453C22.7229 29.835 22.3209 30.7358 21.8643 31.3956C23.2758 30.888 24.5426 29.8176 25.5484 28.3551C25.8572 27.9053 26.1417 27.4183 26.3983 26.9001H23.5175ZM18.1336 31.3956C17.677 30.7358 17.275 29.835 16.9439 28.7453C16.7724 28.1806 16.6171 27.563 16.4804 26.9001H13.6002C13.8562 27.4183 14.1407 27.9053 14.4501 28.3551C15.4553 29.8176 16.7227 30.888 18.1336 31.3956ZM16.3102 25.9875C16.03 24.3349 15.8622 22.4537 15.8399 20.4551H12.0843C12.1365 22.4717 12.5335 24.3567 13.1914 25.9875H16.3102ZM15.8399 19.5424C15.8622 17.5438 16.03 15.6626 16.3102 14.0101H13.1914C12.5335 15.6409 12.1365 17.5258 12.0843 19.5424H15.8399ZM16.4804 13.0974C16.6171 12.4345 16.7724 11.817 16.9439 11.2522C17.275 10.1625 17.677 9.2617 18.1336 8.60191C16.7227 9.10949 15.4553 10.1799 14.4501 11.6424C14.1407 12.0922 13.8562 12.5793 13.6002 13.0974H16.4804ZM22.1843 11.5157C21.5748 9.51145 20.7982 8.27202 19.9993 8.27202C19.1997 8.27202 18.4231 9.51145 17.8136 11.5157C17.6658 12.0027 17.5303 12.5321 17.4098 13.0974H22.5887C22.4676 12.5321 22.3327 12.0027 22.1843 11.5157ZM17.2328 14.0101C16.947 15.6459 16.7749 17.5289 16.7525 19.5424H23.246C23.223 17.5289 23.0509 15.6459 22.7651 14.0101H17.2328ZM16.7525 20.4551C16.7749 22.4686 16.947 24.3517 17.2328 25.9875H22.7651C23.0509 24.3517 23.223 22.4686 23.246 20.4551H16.7525ZM17.4098 26.9001C17.5303 27.4655 17.6658 27.9948 17.8136 28.4819C18.4231 30.4861 19.1997 31.7255 19.9993 31.7255C20.7982 31.7255 21.5748 30.4861 22.1843 28.4819C22.3327 27.9948 22.4676 27.4655 22.5887 26.9001H17.4098ZM24.6227 9.21821C25.2341 9.75561 25.7963 10.3968 26.2971 11.1249C26.7102 11.7256 27.0817 12.3867 27.4048 13.0968H29.4817C29.1213 12.6029 28.7231 12.1375 28.2913 11.7058C27.2451 10.6596 26.002 9.81028 24.6227 9.21821ZM27.7825 14.0094C28.4044 15.6664 28.7772 17.5457 28.8262 19.5418H31.717C31.64 17.5258 31.0541 15.6403 30.0837 14.0094H27.7825ZM28.8262 20.4545C28.7772 22.4506 28.405 24.3299 27.7825 25.9869H30.0837C31.0541 24.356 31.64 22.4705 31.717 20.4545H28.8262ZM27.4048 26.8995C27.0817 27.6096 26.7102 28.2706 26.2971 28.8714C25.7963 29.5995 25.2341 30.2407 24.6227 30.7781C26.002 30.186 27.2451 29.3367 28.2913 28.2905C28.7231 27.8587 29.1207 27.3934 29.4811 26.8995H27.4048ZM15.3758 30.7781C14.7638 30.2407 14.2022 29.5995 13.7015 28.8714C13.2883 28.2706 12.9168 27.6096 12.5937 26.8995H10.5168C10.8772 27.3934 11.2754 27.8587 11.7072 28.2905C12.7528 29.3367 13.9959 30.186 15.3758 30.7781ZM12.2154 25.9869C11.5935 24.3299 11.2214 22.4506 11.1717 20.4545H8.2809C8.35794 22.4705 8.94441 24.356 9.91483 25.9869H12.2154ZM11.1717 19.5418C11.2214 17.5457 11.5935 15.6664 12.2154 14.0094H9.91483C8.94441 15.6403 8.35794 17.5258 8.2809 19.5418H11.1717ZM12.5937 13.0968C12.9168 12.3867 13.2883 11.7256 13.7015 11.1249C14.2022 10.3968 14.7638 9.75561 15.3758 9.21821C13.9959 9.81028 12.7528 10.6596 11.7072 11.7058C11.2754 12.1375 10.8772 12.6029 10.5168 13.0968H12.5937Z" fill="white"/>
<path fill-rule="evenodd" clip-rule="evenodd" d="M32.8572 19.9997C32.8572 27.1005 27.1008 32.8569 20 32.8569C12.8992 32.8569 7.14288 27.1005 7.14288 19.9997C7.14288 12.8989 12.8992 7.14258 20 7.14258C27.1008 7.14258 32.8572 12.8989 32.8572 19.9997ZM20 31.9179C26.5822 31.9179 31.9182 26.5819 31.9182 19.9997C31.9182 13.4175 26.5822 8.08158 20 8.08158C13.4178 8.08158 8.08189 13.4175 8.08189 19.9997C8.08189 26.5819 13.4178 31.9179 20 31.9179Z" fill="white"/>
</svg>
